<svg class="logo" viewBox="0 0 160 43" fill="none" xmlns="http://www.w3.org/2000/svg">
<path d="M56.9782 13.9626C57.6937 14.3346 58.5808 14.7065 59.4107 15.1929C60.2692 15.6793 61.0132 16.2516 61.4711 17.1672C61.7001 17.6536 61.8431 18.1686 61.8431 18.7695C61.8718 20.057 61.3566 21.1443 60.2978 22.0313C59.239 22.8896 57.9226 23.3474 56.3487 23.3474C54.7175 23.3474 53.4869 22.861 52.657 21.8596C52.0275 21.0871 51.7985 20.2287 51.9702 19.2845C52.1133 18.3689 52.5998 17.6822 53.3725 17.253C53.859 16.9669 54.4599 16.8238 55.1181 16.8238C55.8049 16.8238 56.4345 17.0527 57.0068 17.4819C57.5792 17.9111 57.8367 18.4261 57.8367 18.9984C57.8081 19.7137 57.4075 20.1429 56.9782 20.1429C56.549 20.1429 56.0339 19.8567 55.8335 19.3131C56.0339 19.1986 56.1483 18.9984 56.1483 18.7409C56.1769 18.4547 56.0625 18.1972 55.8622 17.9683C55.6618 17.7394 55.3757 17.5964 55.0323 17.5964C54.4027 17.5964 53.9448 17.9397 53.7159 18.5978C53.4583 19.2845 53.5156 19.9998 53.8303 20.7437C54.1737 21.5735 54.7461 22.0599 55.5474 22.2316C55.7191 22.2602 55.9194 22.2888 56.0911 22.2888C56.8351 22.2888 57.4647 22.0026 58.0084 21.459C58.5522 20.9154 58.8097 20.2287 58.7811 19.3131C58.7525 18.5406 58.2374 17.9111 57.5506 17.4819C56.8351 17.0527 55.948 16.6808 55.0895 16.1944C54.231 15.708 53.5156 15.1643 53.0863 14.1915C52.8574 13.7051 52.7429 13.1615 52.7429 12.5606C52.7429 11.3017 53.3152 10.2716 54.2024 9.64216C55.0895 9.0413 56.1483 8.72656 57.293 8.72656C57.6937 8.72656 58.0943 8.78379 58.4949 8.84101C58.8956 8.92685 59.239 9.01269 59.4965 9.09853C59.7541 9.18436 60.0116 9.2702 60.2406 9.35604C60.6985 9.4991 60.9846 9.47048 61.0991 9.18436L62.0148 9.55632L60.4409 13.4762L59.4965 13.1042C59.7255 12.532 59.8399 11.9025 59.7541 11.2444C59.6682 10.5578 59.0673 10.0713 58.0371 10.0713C57.4361 10.0713 56.921 10.3002 56.4917 10.758C56.0339 11.2158 55.8049 11.7881 55.8049 12.5034C55.7763 13.0756 56.2628 13.5907 56.9782 13.9626Z" fill="white"/>
<path d="M47.8503 14.2771C48.5657 14.6777 49.4814 15.0497 50.34 15.5361C51.2271 16.0225 51.9997 16.5947 52.429 17.5676C52.6579 18.054 52.7724 18.5976 52.7724 19.1985C52.7724 20.5718 52.1714 21.6305 51.2557 22.2314C50.3399 22.8322 49.1667 23.147 47.9075 23.1183C47.4782 23.1183 47.0776 23.0897 46.6483 23.0039C46.2191 22.918 45.8757 22.8322 45.6181 22.7464C45.332 22.6605 45.0744 22.5747 44.8455 22.5175C44.3876 22.3744 44.1014 22.3744 44.0156 22.6605L42.9854 22.26L44.6451 18.1398L45.6467 18.5404C45.4464 19.0268 45.3606 19.5132 45.332 19.9996C45.3033 20.486 45.4178 20.9152 45.6754 21.2872C45.9329 21.6591 46.3049 21.8594 46.8487 21.8594C47.5927 21.8594 48.2509 21.6305 48.766 21.1727C49.2811 20.7149 49.5673 20.1999 49.5673 19.599C49.5673 18.9696 49.0522 18.4259 48.3368 18.0254C47.6213 17.5962 46.677 17.1956 45.8184 16.6806C44.9313 16.1656 44.1873 15.5647 43.7294 14.5633C43.5005 14.0483 43.386 13.5046 43.386 12.8751C43.386 11.559 43.987 10.4431 44.9027 9.81364C45.8184 9.18417 46.9631 8.84082 48.1651 8.84082C48.5943 8.84082 48.9949 8.89805 49.4242 8.95528C49.8535 9.04111 50.1969 9.12695 50.483 9.2414C50.7692 9.32724 51.0268 9.44168 51.2843 9.49891C51.7708 9.64197 52.057 9.61335 52.1714 9.32723L53.1444 9.7278L51.5132 13.848L50.5116 13.476C50.7692 12.8752 50.8837 12.2171 50.7978 11.5018C50.712 10.7865 50.0824 10.2714 48.9663 10.2714C48.3368 10.2714 47.793 10.5003 47.3352 10.9867C46.8773 11.4731 46.6197 12.074 46.6197 12.8179C46.6197 13.3902 47.1348 13.8766 47.8503 14.2771Z" fill="white"/>
<path d="M43.2993 20.801C43.4424 21.4304 43.5855 21.7738 43.6713 21.8882C43.7572 22.0027 43.9002 22.0599 44.0719 22.0599V22.8324H39.7508V22.0599C39.9511 22.0599 40.0655 21.9454 40.0942 21.7166C40.1228 21.4877 40.0655 21.2301 39.9797 20.9154L39.3787 18.4548H36.3739L35.5154 21.9168C35.4296 22.3174 35.401 22.5749 35.401 22.6608C35.4296 22.7752 35.5727 22.8038 35.8016 22.8038V23.5763H33.3691V22.8038C33.6267 22.8038 33.7984 22.7466 33.8842 22.6608C33.9701 22.5749 34.056 22.3174 34.1418 21.8882L35.0003 18.4261H34.3421L34.5997 17.3103H35.2579L36.8604 10.8725C36.9749 10.4147 36.8318 10.3575 36.4026 10.3575V9.58496H40.9813V10.3575C40.8096 10.3575 40.781 10.5578 40.8668 10.9011L43.2993 20.801ZM36.6315 17.3675H39.0926L37.862 12.4176L36.6315 17.3675Z" fill="white"/>
<path d="M28.8479 20.973C28.8479 21.5452 28.9051 21.86 28.991 21.9744C29.0482 22.0316 29.1627 22.0889 29.3058 22.0889V22.8614H25.1563V22.0889C25.3566 22.0889 25.4425 22.003 25.4997 21.8027C25.5283 21.6025 25.5569 21.488 25.5569 21.0874V20.9444V11.9887C25.328 11.3307 25.0132 10.787 24.584 10.3578C24.1547 9.95727 23.6396 9.72837 23.01 9.72837C21.8081 9.72837 20.9496 10.1862 20.3772 11.1304C19.9766 11.8457 19.8335 12.561 20.0338 13.3049C20.2055 13.9916 20.5776 14.3922 21.1499 14.5066C21.2358 14.5352 21.3502 14.5352 21.4361 14.5352C21.9512 14.5352 22.3518 14.2205 22.3232 13.6769C22.2946 13.3907 22.1801 13.1905 21.9798 13.076C22.1801 12.5038 22.7238 12.189 23.2103 12.189C23.6968 12.189 24.1261 12.6468 24.1547 13.448C24.1833 14.3063 23.8685 14.9644 23.239 15.4794C22.6094 15.9945 21.8367 16.2234 20.9496 16.2234C19.8049 16.2234 18.9464 15.7656 18.3454 14.8214C17.8017 13.963 17.6586 12.9902 17.9162 11.9029C18.1737 10.7012 18.8605 9.7856 19.9766 9.18474C20.8065 8.72694 21.7795 8.49805 22.9242 8.49805C23.7827 8.49805 24.584 8.61249 25.2994 8.84139H29.3058C30.7939 8.89861 32.053 9.41364 32.8543 10.2148C33.2549 10.6154 33.5697 11.0445 33.8273 11.5596C34.371 12.561 34.3996 13.6769 34.2565 14.7641C34.0848 15.8514 33.4266 16.8814 32.5967 17.6254C31.7669 18.3693 30.4218 18.8271 28.8765 18.7985V20.973H28.8479ZM28.8479 17.9115C29.7064 17.9687 30.336 17.4537 30.7653 16.3378C31.1659 15.2505 31.2517 14.0202 31.0514 12.6468C30.8511 11.2734 30.3932 10.3865 29.735 9.95727C29.4775 9.7856 29.1913 9.72837 28.8765 9.75698C28.8765 9.81421 28.8479 9.95727 28.8479 10.2148V17.9115Z" fill="white"/>
<path d="M5.98351 14.4214V6.55307C5.84042 5.6947 5.49702 4.86495 5.06776 4.14964C4.92468 3.89213 4.98191 3.5774 5.21085 3.40572C5.52564 3.20544 5.89766 3.37712 5.95489 3.49157C6.52724 4.20687 8.24426 4.40716 9.41756 4.06381C17.5448 1.31703 22.5528 4.17826 22.5814 9.44291C22.5814 11.7033 21.265 13.8492 18.7754 14.5073C21.2078 14.5931 24.6133 17.5116 24.556 22.6618C24.556 28.2412 20.8072 34.4214 11.5638 34.3356C2.74978 34.2211 0.0883851 27.9837 0.00253379 25.008C-0.0833176 20.6589 2.00573 16.9966 7.2999 16.5388C9.53203 16.3385 13.3667 17.626 13.5957 21.6603C10.2761 21.0881 7.70054 23.4629 7.72915 26.2955C7.81501 29.1281 10.0185 31.0738 12.5082 31.0738C14.4256 31.0738 17.4304 30.0151 17.4017 24.6932C17.3159 18.6847 11.4208 15.1368 5.92628 16.224C5.58287 16.3099 5.35393 16.3099 5.18223 16.081C5.03915 15.8521 5.06776 15.5087 5.2967 15.337C5.58287 15.1368 6.04074 14.8792 5.98351 14.4214ZM12.7371 6.55307L12.7658 13.8778C14.7117 14.2498 15.9995 13.4772 15.885 10.1582C15.7706 6.92503 14.3111 6.03805 12.7371 6.55307Z" fill="white"/>
<path fill-rule="evenodd" clip-rule="evenodd" d="M47.6496 23.5491C45.7037 20.7165 43.0423 20.1442 40.6957 21.346C39.6368 21.8324 38.2918 23.6063 39.3221 25.2658C39.6368 25.7809 40.295 26.1528 41.2394 26.0956C41.64 26.067 42.1838 25.8667 42.3841 25.552C42.8706 24.808 42.1265 23.6922 41.1822 24.0069C41.0963 24.0355 41.0105 24.1213 40.896 24.0641C41.0963 23.5777 41.7545 23.2058 42.5272 23.4919C43.0709 23.6922 43.5574 24.2644 43.7005 24.808C43.9008 25.7522 43.4429 26.6678 42.842 26.9826C41.2108 27.8123 39.9516 27.4118 38.6352 26.4962C37.834 25.9525 37.0041 24.7222 36.4031 23.7494C33.57 19.2 29.4491 16.6535 24.3839 16.1671C23.5254 15.9955 22.7814 15.9668 21.9228 15.9955C21.8942 15.8238 21.9228 15.6521 21.8656 15.4804C21.5794 15.4518 21.3505 15.4518 21.1502 15.4804C21.1502 15.7093 21.2647 15.8524 21.236 16.0813C21.1216 16.0813 21.0643 16.1385 20.9212 16.1099C20.864 15.9096 20.8354 15.6807 20.7782 15.4804C20.5492 15.4804 20.3203 15.4804 20.12 15.5377C20.1486 15.7952 20.2631 15.9955 20.2344 16.2816C20.12 16.3102 20.0341 16.3388 19.891 16.3388C19.8338 16.1099 19.8052 15.8524 19.7479 15.6235C19.4904 15.6521 19.2042 15.6807 19.0325 15.8238C19.0898 16.0527 19.147 16.253 19.1756 16.4819C18.9753 16.5963 18.7177 16.6249 18.5174 16.7394C18.5746 16.8824 18.6033 17.0255 18.6891 17.14C19.3187 16.8252 20.12 16.7108 20.9499 16.5963C21.5794 16.5105 22.2663 16.396 22.9817 16.5391C22.1518 16.5677 21.3219 16.768 20.5492 17.0541C19.8624 17.283 19.0611 17.6836 18.6605 18.17C18.5174 18.3417 18.3457 18.6564 18.2885 18.8281C17.9737 20.0012 19.2042 20.8596 20.1772 20.2587C20.2917 20.1729 20.492 20.0298 20.6065 19.8295C20.864 19.3717 20.6065 18.7136 20.2058 18.542C20.0627 18.4561 19.9196 18.5133 19.7766 18.4275C20.492 17.655 21.6653 17.3402 22.8958 17.4833C25.0707 17.7408 27.217 18.3131 28.8482 19.7437C30.0215 20.7737 31.1089 22.5763 31.6813 24.1213C32.3681 26.0098 32.6256 26.7823 33.9134 28.6707C37.5192 33.964 45.8181 35.4518 48.1075 29.5863C49.0233 27.2401 48.5654 24.7508 47.6496 23.5491Z" fill="white"/>
<path d="M100.276 8.72662C100.162 8.72662 99.9616 8.698 99.9044 8.72662C99.8758 8.75523 99.7041 8.69801 99.7041 8.75523C99.7041 8.81245 99.6468 8.78384 99.6468 8.89829V9.21303V19.8854C99.6468 20.3146 99.6468 20.4862 99.7041 20.7151C99.7327 20.9726 99.8758 21.0585 100.076 21.0585V21.831H96.0983V21.0585C96.2414 21.0585 96.2986 20.9727 96.2414 20.801C96.2128 20.7151 96.1269 20.4576 95.9552 19.9998L93.0649 12.4176V20.8296C93.0649 21.2874 93.0935 21.5735 93.1507 21.6593C93.208 21.7738 93.3797 21.8024 93.6659 21.8024V22.5749H91.1189V21.8024C91.3765 21.8024 91.5482 21.7452 91.6054 21.6593C91.6627 21.5449 91.6913 21.2874 91.6913 20.8296V10.7295C91.2048 9.58498 90.3463 8.84106 89.173 8.84106C87.9424 8.84106 87.0267 9.29886 86.4543 10.2145C86.0251 10.9011 85.9106 11.6165 86.1109 12.389C86.3113 13.0757 86.6833 13.4762 87.2556 13.5907C87.3415 13.6193 87.4559 13.6193 87.5418 13.6193C88.0569 13.6193 88.4862 13.3046 88.4862 12.7896C88.4575 12.532 88.3431 12.3318 88.1428 12.1887C88.3717 11.6165 88.9154 11.3017 89.4305 11.3017C89.917 11.3017 90.3749 11.7595 90.4035 12.5607C90.4321 13.419 90.1173 14.1057 89.4305 14.5921C88.7723 15.0785 87.9711 15.336 87.0553 15.336C85.8534 15.336 84.9663 14.8782 84.3653 13.934C83.793 13.0757 83.6499 12.1029 83.9074 11.0442C84.1936 9.84249 84.909 8.95552 86.0537 8.35466C86.9122 7.89686 87.9138 7.66797 89.0871 7.66797C90.7183 7.69658 92.1205 8.06854 93.2366 8.78384H95.6404V9.55637C95.3257 9.55637 95.3543 9.69944 95.4974 10.1C95.526 10.1858 95.5546 10.2431 95.5546 10.3003L98.2732 17.9684V9.27025C98.2732 9.01274 98.2446 8.86968 98.216 8.81246C98.1874 8.78385 98.0443 8.75523 97.7581 8.75523V7.9827H100.276V8.72662Z" fill="white"/>
<path d="M104.57 10.4165C104.341 10.4165 104.227 10.4451 104.198 10.4737C104.17 10.5023 104.141 10.674 104.141 10.9029V20.8313C104.141 21.3464 104.198 21.6611 104.255 21.7469C104.313 21.8041 104.427 21.8614 104.542 21.8614V22.5767H100.564V21.8614C100.735 21.8614 100.821 21.8041 100.879 21.6039C100.907 21.518 100.907 21.4322 100.907 21.3464C100.907 21.2891 100.907 21.1461 100.907 20.9744V20.8027V10.9029C100.907 10.6168 100.879 10.4737 100.821 10.4451C100.793 10.4165 100.707 10.4165 100.535 10.4165V9.70117H104.513V10.4165H104.57Z" fill="white"/>
<path d="M119.507 9.72907C119.278 9.72907 119.164 9.75769 119.135 9.7863C119.107 9.84353 119.078 9.98659 119.078 10.2441V20.8592C119.078 21.3743 119.135 21.689 119.192 21.7748C119.25 21.8321 119.364 21.8893 119.479 21.8893V22.6046H115.501V21.8893C115.672 21.8893 115.758 21.8321 115.816 21.6318C115.844 21.4315 115.873 21.3457 115.873 20.9737V20.8306L115.901 15.051L114.556 19.915C114.757 20.6017 114.843 21.2312 114.871 21.8607C114.9 23.4916 114.242 24.865 113.211 25.6661C112.181 26.4672 110.893 26.925 109.52 26.925C108.203 26.925 107.03 26.5817 106.086 25.8664C105.113 25.1511 104.626 24.1497 104.598 22.8621C104.569 22.0037 104.855 21.2598 105.456 20.659C106.029 20.0581 106.858 19.7434 107.889 19.772C108.633 19.772 109.291 20.0009 109.863 20.4301C110.436 20.8592 110.722 21.3743 110.722 21.9465C110.693 22.6618 110.292 23.091 109.835 23.091C109.377 23.091 108.862 22.8049 108.661 22.2612C108.862 22.1754 108.976 21.9751 109.005 21.689C109.033 21.4029 108.919 21.1454 108.719 20.8879C108.518 20.6303 108.203 20.5159 107.86 20.5159C107.173 20.5159 106.658 20.7448 106.286 21.2026C105.914 21.6604 105.742 22.204 105.771 22.8335C105.771 23.7491 106.086 24.4644 106.687 24.9794C107.288 25.4944 107.974 25.7806 108.804 25.7806C109.72 25.7806 110.521 25.4658 111.18 24.8077C111.838 24.1497 112.153 23.2341 112.095 22.0323C112.009 21.2598 111.809 20.4873 111.494 19.6861C111.18 18.885 110.779 18.0266 110.292 17.0824C109.806 16.1382 109.434 15.3657 109.234 14.7934V17.998C109.234 18.4272 109.262 18.6847 109.319 18.7705C109.377 18.8564 109.52 18.9136 109.777 18.9136V19.6289H107.459V18.9136C107.717 18.9136 107.86 18.8564 107.889 18.7705C107.917 18.6847 107.946 18.4272 107.946 17.998V11.0739C107.917 10.5302 107.946 10.5588 107.631 10.5302V9.81492H111.637V10.5302C111.466 10.5302 111.437 10.6161 111.409 10.7019C111.409 10.7591 111.409 10.9022 111.409 10.9594C111.409 11.4458 111.494 11.9894 111.666 12.6189C111.838 13.2484 112.038 13.8206 112.238 14.2784C112.439 14.7648 112.754 15.3943 113.126 16.1954C113.498 16.9966 113.784 17.5974 113.955 17.998L116.016 10.0438C116.016 9.81491 115.959 9.81492 115.672 9.81492V9.09961H119.65V9.72907H119.507Z" fill="white"/>
<path d="M132.07 18.0833C131.469 18.5125 130.468 18.7414 129.323 18.7414C128.865 18.7414 128.293 18.6555 127.635 18.4839C126.948 18.3122 126.375 18.1691 125.86 18.0261C125.345 17.883 124.773 17.8258 124.172 17.8258C123.542 17.8258 122.999 17.9974 122.512 18.2836L121.825 20.7442C121.625 21.6026 121.625 21.8315 122.054 21.8601V22.5754H119.736V21.8601C119.965 21.8601 120.137 21.7743 120.223 21.6312C120.309 21.4881 120.423 21.202 120.509 20.8015C120.509 20.7728 120.509 20.7442 120.538 20.7156L123.228 11.0447C123.342 10.5583 123.342 10.4438 123.085 10.4438V9.72852H126.147V10.4438C125.889 10.4438 125.889 10.5869 126.032 11.0733L127.549 15.6513C126.347 15.5368 125.374 15.5654 124.63 15.7371L123.943 13.4481L123.085 16.4524C123.771 16.0804 124.544 15.8801 125.374 15.7943C126.204 15.7085 126.976 15.7371 127.692 15.8515C128.407 15.966 129.066 16.0804 129.724 16.1949C130.382 16.3093 130.926 16.3379 131.384 16.3093C131.87 16.2521 132.185 16.0804 132.385 15.7371C133.215 16.5382 132.986 17.4824 132.07 18.0833ZM128.837 19.8286C129.094 20.687 129.352 21.1162 129.638 21.1162V21.8315H125.66V21.1162C126.061 21.1162 126.032 20.687 125.803 19.8859L125.259 18.1119C125.574 18.1405 126.118 18.255 126.891 18.4839C127.663 18.6841 128.207 18.7986 128.522 18.8272L128.837 19.8286Z" fill="white"/>
<path d="M140.197 19.4007V21.8614H132.556L132.527 20.9458C132.699 20.9458 132.814 20.86 132.842 20.6311C132.871 20.4022 132.899 20.2591 132.899 19.8585V11.2176C132.899 10.8743 132.871 10.6454 132.842 10.5595C132.814 10.4737 132.699 10.4165 132.527 10.4165V9.70117H136.505V10.4165C136.305 10.4165 136.219 10.4737 136.162 10.5595C136.133 10.674 136.104 10.9029 136.104 11.2462V20.9172H138.823L139.911 19.3721H140.197V19.4007Z" fill="white"/>
<path d="M150.213 10.1573C151.586 10.9013 153.332 11.6166 154.992 12.5894C156.652 13.5622 158.111 14.6495 159.027 16.4807C159.485 17.3962 159.742 18.4549 159.742 19.5994C159.799 22.1459 158.826 24.2632 156.709 25.9799C154.62 27.6681 152.044 28.5264 148.982 28.555C145.777 28.555 143.345 27.6108 141.771 25.608C140.569 24.0915 140.111 22.432 140.397 20.5722C140.683 18.7696 141.599 17.4535 143.144 16.5951C144.117 16.0515 145.262 15.7654 146.578 15.7654C147.952 15.7654 149.154 16.2231 150.27 17.0815C151.386 17.9399 151.901 18.9127 151.872 20.0286C151.844 21.4592 151.071 22.2889 150.213 22.2889C149.354 22.2889 148.353 21.7167 147.981 20.658C148.353 20.4578 148.581 20.0572 148.61 19.5136C148.639 18.9699 148.467 18.4549 148.066 17.9971C147.666 17.5107 147.122 17.2818 146.435 17.2818C145.176 17.2818 144.318 17.9399 143.86 19.2274C143.373 20.5436 143.459 21.9456 144.06 23.4334C144.747 25.0357 145.834 26.0085 147.408 26.3519C147.752 26.4091 148.124 26.4663 148.467 26.4663C149.926 26.4663 151.157 25.9227 152.244 24.864C153.303 23.834 153.818 22.432 153.761 20.6867C153.733 19.1702 152.731 17.9399 151.329 17.1101C149.926 16.2804 148.209 15.5651 146.521 14.5922C144.833 13.648 143.43 12.5608 142.572 10.6724C142.143 9.72817 141.914 8.66952 141.914 7.49641C141.914 5.03576 143.03 2.97568 144.747 1.80258C146.464 0.629475 148.553 0 150.814 0C151.586 0 152.359 0.085842 153.132 0.228903C153.904 0.400577 154.562 0.572247 155.078 0.74392C155.593 0.915594 156.079 1.08727 156.537 1.23033C157.453 1.51645 157.997 1.45923 158.197 0.886981L160 1.6309L156.966 9.29898L155.135 8.58368C155.593 7.43919 155.822 6.26609 155.65 4.92131C155.478 3.57653 154.305 2.63233 152.273 2.63233C151.128 2.63233 150.098 3.09012 149.24 3.9771C148.381 4.86408 147.923 6.00858 147.895 7.38197C147.895 8.46923 148.839 9.44204 150.213 10.1573Z" fill="white"/>
<path d="M141.372 22.4043H113.327V22.9765H141.372V22.4043Z" fill="white"/>
<path d="M143.403 26.8658H110.521L112.353 24.0332H143.403V26.8658Z" fill="white"/>
<path d="M102.595 8.64072C103.338 8.64072 103.94 8.03864 103.94 7.29594C103.94 6.55324 103.338 5.95117 102.595 5.95117C101.852 5.95117 101.25 6.55324 101.25 7.29594C101.25 8.03864 101.852 8.64072 102.595 8.64072Z" fill="white"/>
<path fill-rule="evenodd" clip-rule="evenodd" d="M107.117 28.1255C103.912 24.4059 100.048 23.9768 96.9005 26.0368C95.4697 26.8666 93.8099 29.6134 95.5269 31.8165C96.0706 32.5032 97.0436 32.9038 98.36 32.7035C98.9324 32.6177 99.6764 32.2457 99.9053 31.7593C100.478 30.6148 99.2471 29.1556 97.9594 29.7278C97.8449 29.785 97.7304 29.9281 97.5587 29.8423C97.7877 29.0984 98.6462 28.4975 99.8195 28.7836C100.621 28.9839 101.422 29.7278 101.68 30.5004C102.109 31.8165 101.594 33.1899 100.792 33.7335C98.6176 35.1641 96.7575 34.7922 94.7256 33.7049C93.4951 33.0468 92.1215 31.4159 91.1199 30.1284C86.3694 24.0626 80.1595 21.1155 72.8622 21.1728C71.603 21.0869 70.5442 21.1155 69.3136 21.2872C69.2564 21.0583 69.2564 20.7722 69.1705 20.5719C68.7699 20.5433 68.4265 20.6005 68.1403 20.6864C68.1689 21.0297 68.3407 21.2014 68.3693 21.5447C68.1976 21.5733 68.1117 21.6592 67.9114 21.6592C67.7969 21.373 67.7397 21.0297 67.5966 20.7722C67.2532 20.8008 66.9384 20.858 66.6809 20.9439C66.7381 21.3158 66.967 21.5447 66.967 21.9739C66.8239 22.0311 66.6809 22.0884 66.4805 22.0884C66.3661 21.7736 66.2802 21.4303 66.1658 21.1155C65.7937 21.2014 65.3931 21.2586 65.1928 21.5161C65.2786 21.8308 65.4217 22.117 65.5076 22.4317C65.2214 22.6034 64.878 22.7178 64.6204 22.9181C64.7349 23.0898 64.7635 23.3187 64.9352 23.4617C65.7651 22.9181 66.8812 22.632 68.0545 22.3172C68.9416 22.0883 69.9146 21.8308 70.9162 21.9453C69.7429 22.117 68.5696 22.5461 67.5108 23.0326C66.5664 23.4617 65.5076 24.1484 64.9924 24.921C64.8207 25.1785 64.6204 25.6363 64.5632 25.8938C64.3056 27.6105 66.1658 28.6406 67.4821 27.6677C67.6538 27.5533 67.9114 27.2958 68.0259 27.0097C68.312 26.2943 67.8828 25.436 67.2532 25.2071C67.0243 25.1212 66.8239 25.2357 66.6236 25.0926C67.5108 23.8909 69.1419 23.2615 70.9162 23.2615C74.0641 23.2901 77.1833 23.7765 79.7303 25.579C81.5618 26.8952 83.3933 29.27 84.4521 31.3873C85.7399 33.9911 86.1691 35.0211 88.3154 37.5104C94.2678 44.4918 106.287 45.3501 108.662 36.652C109.635 33.1613 108.605 29.6992 107.117 28.1255Z" fill="white"/>
<path d="M90.2592 28.5545C90.4882 29.5559 90.6885 30.1282 90.8602 30.3285C91.0033 30.5288 91.2322 30.6146 91.547 30.6146V31.8449H84.6217V30.6146C84.9651 30.6146 85.1368 30.4143 85.194 30.071C85.2226 29.699 85.1654 29.2698 84.9937 28.7834L83.3053 23.6332H78.4976L77.124 29.184C76.9523 29.8421 76.895 30.2426 76.9237 30.3857C76.9523 30.5574 77.1812 30.6146 77.5818 30.6146V31.8735H73.6899V30.6146C74.0906 30.6146 74.3767 30.5288 74.4912 30.3857C74.6057 30.2426 74.7774 29.8134 74.9491 29.1554L76.2941 23.6332L76.7233 21.8306L78.841 13.3328C78.4976 12.2455 77.9825 11.3586 77.2671 10.6719C76.5802 9.98517 75.7217 9.61321 74.7201 9.61321C72.8028 9.61321 71.4006 10.3571 70.5134 11.845C69.8552 12.9608 69.6549 14.1339 69.9697 15.3357C70.2559 16.4229 70.8568 17.081 71.7726 17.2527C71.9157 17.2813 72.0588 17.3099 72.2305 17.3099C73.0317 17.3099 73.7185 16.7949 73.6613 15.9365C73.6327 15.5073 73.461 15.164 73.1176 14.9637C73.461 14.0481 74.3195 13.5331 75.0922 13.5331C75.8648 13.5331 76.5516 14.277 76.5802 15.5359C76.6089 16.9379 76.1224 18.0252 75.0922 18.7977C74.0619 19.5989 72.8314 19.9994 71.4292 19.9994C69.5977 19.9994 68.1954 19.2555 67.2511 17.7391C66.3926 16.3371 66.1636 14.7634 66.5643 13.0467C66.9935 11.1297 68.1096 9.67043 69.8838 8.69761C71.2002 7.95369 72.7742 7.61035 74.5771 7.61035C77.1526 7.63896 79.2989 8.23982 80.9873 9.41292H85.8236V10.6719C85.5374 10.6719 85.4516 10.9294 85.5946 11.473C85.5946 11.5016 85.6233 11.5302 85.6233 11.5588L90.2592 28.5545ZM78.8982 21.8306H82.8188L80.8442 13.8764L78.8982 21.8306Z" fill="white"/>
</svg>
