<svg width="126" height="94" viewBox="0 0 126 94" fill="none" xmlns="http://www.w3.org/2000/svg">
<g opacity="0.8">
<path d="M11.3111 17.9489V5.60986C11.0791 4.26463 10.5224 2.96579 9.87285 1.8061C9.64088 1.38862 9.73367 0.924743 10.1048 0.646419C10.5688 0.368095 11.1719 0.600033 11.2647 0.785583C12.1462 1.89888 14.8835 2.22359 16.693 1.66694C29.4516 -2.64708 37.3388 1.85249 37.3852 10.1094C37.3852 13.6349 35.2974 17.0212 31.4002 18.0881C35.251 18.2272 40.5401 22.8196 40.4937 30.891C40.4937 39.6582 34.6015 49.3995 20.1262 49.214C6.30042 49.0284 2.12485 39.2407 1.98566 34.5556C1.84648 27.6903 5.14054 21.9846 13.4453 21.2424C16.9249 20.9641 22.9563 22.9587 23.3275 29.2674C18.1312 28.3861 14.0484 32.097 14.0948 36.5502C14.234 41.0034 17.7136 44.065 21.6108 44.065C24.6265 44.065 29.3588 42.395 29.3125 33.9989C29.1733 24.5359 19.8942 18.9694 11.3111 20.6858C10.8008 20.8249 10.4296 20.8249 10.1512 20.4538C9.91925 20.0827 9.96564 19.5725 10.3368 19.2941C10.6616 19.1086 11.3575 18.6911 11.3111 17.9489ZM21.8892 5.60986L21.9356 17.1139C24.9977 17.717 27.0391 16.4645 26.8535 11.2691C26.6679 6.2129 24.3482 4.77489 21.8892 5.60986Z" fill="#BDBDBD"/>
<path d="M113.148 49.4001C114.958 50.3742 117.231 51.302 119.412 52.6008C121.592 53.8533 123.495 55.2913 124.701 57.7034C125.304 58.9095 125.629 60.3011 125.629 61.7855C125.722 65.1254 124.422 67.9086 121.685 70.1352C118.948 72.3618 115.561 73.4751 111.525 73.5215C107.303 73.5215 104.148 72.269 102.06 69.6713C100.483 67.7231 99.8794 65.4965 100.251 63.038C100.622 60.6722 101.828 58.9095 103.823 57.7962C105.076 57.1004 106.607 56.7293 108.323 56.6829C110.133 56.6829 111.71 57.2859 113.148 58.3992C114.587 59.5125 115.283 60.8114 115.283 62.2494C115.236 64.1049 114.216 65.2182 113.102 65.2182C111.989 65.2182 110.69 64.476 110.179 63.0843C110.69 62.806 110.968 62.2958 110.968 61.5999C111.014 60.9041 110.782 60.2083 110.272 59.6053C109.762 58.9559 109.019 58.6776 108.138 58.6776C106.514 58.6776 105.354 59.5125 104.751 61.2289C104.148 62.9452 104.194 64.8007 105.029 66.7489C105.911 68.8828 107.349 70.1352 109.437 70.5527C109.901 70.6455 110.365 70.6919 110.829 70.6919C112.731 70.6919 114.355 69.9961 115.793 68.6044C117.185 67.2592 117.834 65.4037 117.788 63.1307C117.742 61.1361 116.443 59.5589 114.587 58.4456C112.731 57.3787 110.458 56.4046 108.277 55.1521C106.05 53.8997 104.241 52.4616 103.081 50.0031C102.524 48.7507 102.246 47.4054 102.246 45.8283C102.246 42.6275 103.73 39.9371 105.957 38.3599C108.184 36.8291 110.968 35.9941 113.937 35.9941C114.958 35.9941 115.979 36.0869 116.999 36.3189C118.02 36.5508 118.901 36.7827 119.551 37.0147C120.247 37.2466 120.85 37.4785 121.453 37.6641C122.659 38.0352 123.355 37.9888 123.634 37.2002L126 38.1743L122.01 48.2404L119.597 47.3127C120.201 45.8283 120.479 44.2511 120.247 42.4884C120.015 40.7256 118.484 39.4732 115.793 39.4732C114.262 39.4732 112.963 40.0762 111.803 41.2359C110.643 42.3956 110.086 43.9264 110.04 45.6891C110.133 47.1271 111.339 48.426 113.148 49.4001Z" fill="#BDBDBD"/>
<path fill-rule="evenodd" clip-rule="evenodd" d="M56.9175 73.3361C52.6491 68.3726 47.4529 67.7696 43.2773 70.5528C41.3751 71.6661 39.1481 75.3307 41.4215 78.2531C42.1638 79.1809 43.4629 79.7375 45.2259 79.4128C46.0146 79.2737 46.9889 78.8098 47.3137 78.1604C48.056 76.6296 46.4322 74.6813 44.7156 75.4699C44.5764 75.5163 44.4372 75.7482 44.2052 75.6555C44.53 74.6813 45.6435 73.8927 47.2209 74.2174C48.288 74.4494 49.3551 75.4699 49.6799 76.4904C50.2366 78.2531 49.5407 80.1086 48.4736 80.8044C45.5507 82.7527 43.0917 82.2425 40.4008 80.7581C38.777 79.8767 36.9212 77.6965 35.5757 75.9802C29.2196 67.9088 20.9148 63.9194 11.1718 64.0122C9.50158 63.8731 8.06333 63.9194 6.4395 64.1514C6.3931 63.8267 6.3931 63.4556 6.25392 63.2236C5.69717 63.2236 5.27962 63.27 4.86206 63.3628C4.90846 63.8267 5.14043 64.0586 5.14043 64.5225C4.90845 64.5689 4.81567 64.6616 4.53729 64.6616C4.39811 64.2905 4.30532 63.8267 4.11974 63.502C3.65578 63.5483 3.23823 63.6411 2.86706 63.7339C2.95985 64.2442 3.23823 64.5689 3.23823 65.1255C3.05265 65.2183 2.86706 65.3111 2.58869 65.3111C2.40311 64.8936 2.31032 64.4297 2.17114 64.0122C1.66079 64.1514 1.15044 64.2442 0.872071 64.5689C1.01126 64.9863 1.15044 65.3575 1.28963 65.7749C0.918467 66.0069 0.454512 66.146 0.0833497 66.4244C0.222535 66.6563 0.268931 66.981 0.500907 67.1202C1.61439 66.378 3.09904 66.0069 4.67648 65.5894C5.88275 65.2647 7.13543 64.94 8.52728 65.0791C6.94985 65.3111 5.4188 65.8677 3.98055 66.5171C2.72788 67.1202 1.28963 68.0015 0.5937 69.0684C0.361724 69.3932 0.0833504 70.0426 0.0369551 70.3673C-0.334207 72.6867 2.17114 74.0319 3.93416 72.733C4.16613 72.5475 4.4909 72.2228 4.63008 71.8517C5.00125 70.9239 4.4445 69.7642 3.60939 69.4395C3.28462 69.3468 3.05265 69.4859 2.77427 69.3004C3.98055 67.6768 6.11473 66.8418 8.52728 66.8882C12.7493 66.9346 16.8784 67.584 20.3117 69.9962C22.7706 71.7589 25.2296 74.9596 26.6214 77.7893C28.338 81.2683 28.9412 82.6599 31.7713 85.9998C39.7049 95.3237 55.7576 96.4834 58.9589 84.8401C60.258 80.0622 58.8661 75.4235 56.9175 73.3361Z" fill="#BDBDBD"/>
<path d="M34.3691 73.8934C34.6939 75.1923 34.9723 75.9809 35.1579 76.2592C35.3434 76.4911 35.6682 76.6303 36.0394 76.6303V78.2538H26.8067V76.6303C27.2707 76.6303 27.5026 76.3984 27.549 75.8881C27.5954 75.4242 27.5027 74.8212 27.2707 74.1718L24.9973 67.3064H18.5484L16.739 74.7284C16.507 75.6098 16.4606 76.12 16.507 76.352C16.5534 76.5839 16.8781 76.6767 17.3885 76.6767V78.3466H12.1922V76.6767C12.749 76.6767 13.0737 76.5839 13.2593 76.352C13.4449 76.1664 13.6305 75.6098 13.8625 74.7284L15.6719 67.3528L16.275 64.9407L19.1051 53.5758C18.6412 52.1378 17.9452 50.9317 17.0173 50.004C16.0894 49.0762 14.9295 48.6123 13.6305 48.6123C11.0787 48.6123 9.22293 49.5865 8.01665 51.5811C7.13514 53.0655 6.90317 54.6427 7.32072 56.2662C7.69189 57.7043 8.527 58.5856 9.73327 58.8176C9.91886 58.8639 10.1508 58.8639 10.3364 58.8639C11.4035 58.8639 12.3314 58.1681 12.2386 57.0548C12.1922 56.4518 11.9602 56.0343 11.5427 55.756C12.0066 54.5499 13.1665 53.8541 14.1872 53.8541C15.2079 53.8541 16.1358 54.8746 16.1822 56.5446C16.2286 58.4001 15.5791 59.8381 14.1872 60.905C12.7954 61.9719 11.1715 62.4822 9.26932 62.4822C6.81037 62.4822 4.95457 61.4616 3.70189 59.467C2.54201 57.6115 2.21725 55.5241 2.77399 53.2047C3.37713 50.6534 4.86177 48.7051 7.18154 47.4063C8.94456 46.4321 11.0323 45.9219 13.4449 45.9219C16.8781 45.9683 19.7546 46.7568 21.9816 48.334H28.4306V50.004C28.0594 50.004 27.9666 50.3751 28.1522 51.0709C28.1522 51.1173 28.1986 51.1636 28.1986 51.1636L34.3691 73.8934ZM19.1979 64.8943H24.4406L21.796 54.2716L19.1979 64.8943Z" fill="#BDBDBD"/>
<path d="M101.548 65.4482H64.7568V66.1904H101.548V65.4482Z" fill="#BDBDBD"/>
<path d="M104.243 71.2901H61.0957L63.5083 67.5791H104.243V71.2901Z" fill="#BDBDBD"/>
<path d="M47.6853 47.4966C47.5461 47.4966 47.2678 47.4502 47.2214 47.4966C47.175 47.543 46.9894 47.4966 46.9894 47.543C46.9894 47.5894 46.8966 47.5894 46.8966 47.7285V48.146V62.155C46.8966 62.7117 46.8966 62.9436 46.943 63.2683C46.9894 63.593 47.175 63.7322 47.407 63.7322V64.7063H42.2107V63.7322C42.3963 63.7322 42.4427 63.593 42.3963 63.3611C42.3499 63.2683 42.2571 62.8972 42.0251 62.2942L38.2207 52.3209V63.3611C38.2207 63.9641 38.2671 64.3352 38.3135 64.4744C38.3599 64.6135 38.5919 64.6599 38.963 64.6599V65.6805H35.6226V64.6599C35.9937 64.6599 36.1793 64.5672 36.2721 64.4744C36.3185 64.3352 36.3649 63.9641 36.3649 63.4075V50.1407C35.7154 48.6563 34.6019 47.6358 33.0708 47.6358C31.447 47.6358 30.2407 48.2388 29.4984 49.4449C28.9417 50.3726 28.7561 51.3004 29.0344 52.2745C29.2664 53.1559 29.7768 53.6661 30.5655 53.8517C30.7047 53.8981 30.7975 53.8981 30.9366 53.8981C31.6326 53.8981 32.1893 53.4806 32.1429 52.7848C32.0965 52.4137 31.9573 52.1817 31.679 51.9962C31.9573 51.254 32.6997 50.8365 33.3492 50.8365C33.9987 50.8365 34.6019 51.4395 34.6019 52.4601C34.6483 53.5733 34.2307 54.4547 33.3492 55.1041C32.4677 55.7536 31.447 56.0783 30.2407 56.0783C28.6633 56.0783 27.5034 55.4752 26.7147 54.2692C25.9724 53.1095 25.7868 51.857 26.1115 50.4654C26.4827 48.8882 27.4106 47.7285 28.9417 46.94C30.0551 46.3369 31.4006 46.0586 32.9316 46.0586C35.0658 46.105 36.9216 46.5689 38.3599 47.4966H41.5148V48.5171C41.0972 48.5171 41.1436 48.7027 41.3292 49.2129C41.3756 49.3057 41.422 49.3985 41.422 49.4913L44.948 59.5573V48.146C44.948 47.8213 44.948 47.5894 44.9016 47.543C44.8552 47.4966 44.6696 47.4966 44.2985 47.4966V46.4761H47.5925V47.4966H47.6853Z" fill="#BDBDBD"/>
<path d="M53.3462 49.7212C53.0678 49.7212 52.8822 49.7676 52.8358 49.814C52.7894 49.8604 52.7894 50.0459 52.7894 50.3706V63.4055C52.7894 64.1013 52.8358 64.4724 52.975 64.6115C53.0678 64.7043 53.1606 64.7507 53.3462 64.7507V65.6785H48.1035V64.7507C48.3355 64.7507 48.4747 64.7043 48.5211 64.426C48.5675 64.2868 48.5675 64.1941 48.5675 64.1013C48.5675 64.0085 48.5675 63.8693 48.5675 63.6374V63.4055V50.417C48.5675 50.0459 48.5211 49.8604 48.4747 49.814C48.4283 49.7676 48.3355 49.7676 48.1035 49.7676V48.8398H53.3462V49.7212Z" fill="#BDBDBD"/>
<path d="M72.9249 48.7993C72.6466 48.7993 72.461 48.8457 72.4146 48.8921C72.3682 48.9385 72.3682 49.124 72.3682 49.4951V63.4113C72.3682 64.1072 72.4146 64.4783 72.5538 64.6174C72.6466 64.7102 72.7393 64.7566 72.9249 64.7566V65.6843H67.7287V64.7566C67.9142 64.7566 68.0998 64.6638 68.1462 64.4319C68.1926 64.1999 68.1926 64.0608 68.1926 63.5969V63.4113V55.8038L66.4296 62.1589C66.708 63.0403 66.8008 63.8752 66.8472 64.7102C66.8936 66.844 66.012 68.6531 64.6666 69.6736C63.3211 70.7406 61.6509 71.2972 59.8415 71.2972C58.0785 71.2972 56.5938 70.8333 55.3411 69.9056C54.0421 68.9778 53.3925 67.6326 53.3925 65.9627C53.3461 64.8494 53.7173 63.8752 54.506 63.0866C55.2947 62.2981 56.3618 61.8806 57.7073 61.927C58.6816 61.927 59.5167 62.2053 60.3054 62.8083C61.0941 63.365 61.4653 64.0144 61.4189 64.803C61.3725 65.7307 60.8622 66.2874 60.259 66.2874C59.6559 66.2874 58.96 65.9163 58.728 65.2205C59.0064 65.0813 59.1455 64.8494 59.1919 64.4783C59.2383 64.1072 59.0992 63.7824 58.8208 63.4577C58.5424 63.133 58.1712 62.9939 57.6609 62.9939C56.7794 62.9939 56.0835 63.2722 55.5731 63.8752C55.0628 64.4783 54.8772 65.1741 54.8772 66.009C54.8772 67.2151 55.2947 68.1429 56.0835 68.8387C56.8722 69.5345 57.8001 69.8592 58.8672 69.8592C60.0734 69.8592 61.1405 69.4417 61.9757 68.6067C62.8572 67.7254 63.2283 66.5193 63.1819 64.9421C63.0891 63.9216 62.8108 62.9011 62.3932 61.8806C61.9757 60.86 61.4189 59.7004 60.8158 58.4479C60.1662 57.1954 59.7023 56.1749 59.4239 55.4327V59.654C59.4239 60.2106 59.4703 60.5353 59.5167 60.6745C59.5631 60.8137 59.7951 60.86 60.1198 60.86V61.7878H57.0578V60.86C57.3825 60.86 57.5681 60.8137 57.6145 60.6745C57.6609 60.5353 57.7073 60.2106 57.7073 59.654V50.5621C57.7073 49.8662 57.7073 49.9126 57.2897 49.8199V48.8921H62.5324V49.8199C62.3004 49.8199 62.254 49.9126 62.254 50.0518C62.254 50.0982 62.254 50.3301 62.254 50.3765C62.254 51.0259 62.3932 51.7217 62.6252 52.5567C62.8572 53.3917 63.1355 54.1339 63.4139 54.7369C63.6923 55.34 64.0634 56.1749 64.5738 57.2418C65.0377 58.2624 65.4089 59.0973 65.6409 59.6076L68.3318 49.1704C68.3318 48.8921 68.2854 48.8457 67.8679 48.8457V47.918H73.1105V48.7993H72.9249Z" fill="#BDBDBD"/>
<path d="M89.441 59.7443C88.6522 60.3009 87.3068 60.6256 85.8221 60.6256C85.219 60.6256 84.4767 60.5329 83.5952 60.3009C82.7137 60.069 81.9249 59.8834 81.2754 59.6979C80.5795 59.5123 79.8371 59.4196 79.0484 59.466C78.2133 59.466 77.5174 59.6979 76.8679 60.069L75.9863 63.2697C75.708 64.383 75.708 64.7077 76.3111 64.7541V65.6819H73.249V64.7541C73.5738 64.7541 73.7594 64.6614 73.8986 64.4758C74.0377 64.2903 74.1305 63.9192 74.2697 63.3625C74.2697 63.3161 74.2697 63.2697 74.2697 63.2697L77.7958 50.606C77.9349 50.0029 77.9349 49.8174 77.6102 49.8174V48.8896H81.6002V49.8174C81.2754 49.8174 81.229 50.0029 81.4146 50.6524L83.4096 56.6363C81.8321 56.4972 80.5795 56.5436 79.5588 56.7291L78.6773 53.7603L77.5638 57.7032C78.4917 57.2394 79.466 56.961 80.5795 56.8683C81.693 56.7755 82.7136 56.8219 83.6416 56.961C84.5695 57.1002 85.451 57.2394 86.2861 57.4249C87.1212 57.5641 87.8635 57.6105 88.4667 57.5641C89.0698 57.5177 89.5338 57.2394 89.7657 56.8219C90.9256 57.7496 90.6472 58.9557 89.441 59.7443ZM85.219 62.0637C85.5438 63.177 85.9149 63.7336 86.2397 63.78V64.7077H80.997V63.78C81.5538 63.78 81.5074 63.2233 81.1826 62.2028L80.4867 59.8835C80.9042 59.9298 81.6002 60.069 82.6209 60.3473C83.6416 60.6257 84.3375 60.7648 84.7551 60.8112L85.219 62.0637Z" fill="#BDBDBD"/>
<path d="M100.064 61.507V64.7541H90.0425V63.5481C90.2745 63.5481 90.4137 63.4553 90.46 63.1306C90.5064 62.8059 90.5064 62.6203 90.5064 62.11V50.7451C90.5064 50.2813 90.46 50.0029 90.4136 49.9102C90.3673 49.771 90.2281 49.7246 89.9961 49.7246V48.7969H95.2387V49.7246C95.0068 49.7246 94.8676 49.771 94.8212 49.9102C94.7748 50.0493 94.7284 50.374 94.7284 50.8379V63.5017H98.3008L99.7391 61.4606H100.064V61.507Z" fill="#BDBDBD"/>
<path fill-rule="evenodd" clip-rule="evenodd" d="M79.0015 31.7264C75.661 26.9949 71.1607 25.9743 67.2171 28.0154C65.4077 28.804 63.1343 31.7728 64.8509 34.556C65.4077 35.4374 66.5211 36.0404 68.0986 35.9476C68.7945 35.9012 69.7224 35.5765 70.0472 35.0663C70.8359 33.8138 69.5832 31.9583 68.0058 32.4686C67.8666 32.515 67.7274 32.7005 67.5418 32.5614C67.913 31.7264 68.9801 31.1233 70.3256 31.5872C71.2535 31.9119 72.0886 32.8861 72.3205 33.8138C72.6453 35.391 71.8566 36.9681 70.8823 37.4784C68.145 38.87 66.0108 38.2206 63.7374 36.6898C62.392 35.7621 60.9537 33.6746 59.933 32.0975C55.1079 24.4436 48.1486 20.1759 39.5191 19.341C38.0345 19.0626 36.7818 18.9699 35.3435 19.0162C35.2971 18.7379 35.3435 18.4132 35.2507 18.1813C34.7868 18.1349 34.3692 18.1349 33.9981 18.1813C33.9981 18.5988 34.1837 18.8307 34.1373 19.2018C33.9517 19.2018 33.8125 19.2946 33.5805 19.2482C33.4877 18.9235 33.4413 18.506 33.3485 18.1813C32.931 18.1813 32.5598 18.1813 32.2351 18.274C32.2815 18.6915 32.467 19.0162 32.4206 19.5265C32.2351 19.5729 32.0959 19.6193 31.8639 19.6193C31.7711 19.2482 31.7247 18.8307 31.6319 18.4132C31.168 18.4596 30.704 18.506 30.4256 18.7379C30.5184 19.109 30.6112 19.4337 30.6576 19.8512C30.2865 20.0368 29.8689 20.1295 29.5441 20.3151C29.6369 20.547 29.6833 20.8254 29.8225 20.9645C30.8896 20.4079 32.2351 20.2223 33.6269 20.0368C34.694 19.8976 31.0752 20.547 32.2815 20.779C30.8432 20.8253 34.2301 20.3615 32.931 20.779C31.7711 21.1501 30.4256 21.8459 29.7297 22.6808C29.4977 22.9592 29.173 23.4694 29.1266 23.7941C28.6162 25.7888 30.6576 27.2268 32.3742 26.2063C32.6062 26.0671 32.931 25.8352 33.0702 25.5105C33.4877 24.7219 33.0702 23.655 32.4206 23.3303C32.1423 23.1911 31.9103 23.2839 31.7247 23.1447C32.931 21.8459 34.926 21.3356 37.0138 21.5676C40.7254 22.0314 44.3442 22.9592 47.1279 25.3713C49.1229 27.134 50.9787 30.1492 51.953 32.7469C53.1593 35.9476 53.5305 37.2001 55.7574 40.4008C61.8816 49.2608 75.9394 51.8121 79.8366 41.978C81.3676 37.8959 80.5789 33.721 79.0015 31.7264Z" fill="#BDBDBD"/>
<path d="M96.5858 17.8088C98.72 18.9221 101.365 20.0354 103.963 21.5662C106.514 23.0506 108.741 24.7205 110.18 27.5501C110.876 28.9882 111.247 30.5653 111.293 32.328C111.386 36.2246 109.855 39.5181 106.654 42.1622C103.452 44.7599 99.4623 46.1051 94.73 46.1051C89.7657 46.1051 86.0541 44.6207 83.5951 41.6055C81.7393 39.2861 81.0434 36.7348 81.5073 33.8588C81.9713 31.0756 83.3632 29.0345 85.7293 27.7357C87.214 26.9007 88.977 26.4832 91.0184 26.4369C93.1062 26.4369 95.0084 27.1327 96.725 28.4315C98.4416 29.7304 99.2767 31.2611 99.2303 32.9775C99.1839 35.1577 97.9777 36.4565 96.6786 36.4565C95.3795 36.4565 93.8021 35.5752 93.2453 33.9516C93.8485 33.6269 94.1733 33.0239 94.2196 32.1889C94.266 31.3539 93.9877 30.5653 93.3845 29.8231C92.7814 29.0809 91.9463 28.7098 90.8792 28.7098C88.977 28.7098 87.6315 29.684 86.8892 31.725C86.1469 33.7661 86.2397 35.8999 87.214 38.1728C88.2347 40.6778 89.9513 42.1622 92.3638 42.626C92.9206 42.7188 93.4309 42.8116 93.9877 42.8116C96.2146 42.8116 98.1168 41.9766 99.7871 40.3531C101.411 38.7759 102.2 36.5957 102.107 33.9052C102.06 31.5395 100.529 29.684 98.3488 28.3851C96.1682 27.1327 93.5237 25.973 90.972 24.535C88.3738 23.0506 86.1933 21.3806 84.8942 18.5046C84.2447 17.0666 83.9199 15.443 83.9199 13.5876C83.9199 9.78379 85.6365 6.62946 88.281 4.82035C90.9256 3.01124 94.1732 2.03711 97.6529 2.03711C98.8592 2.03711 100.019 2.17627 101.225 2.40821C102.432 2.68653 103.452 2.91847 104.241 3.19679C105.03 3.47512 105.772 3.75344 106.468 3.93899C107.86 4.35648 108.695 4.31009 109.02 3.42873L111.803 4.54202L107.118 16.3244L104.287 15.2111C104.983 13.4484 105.308 11.6393 105.076 9.55186C104.798 7.51081 102.988 6.02642 99.8799 6.02642C98.1168 6.02642 96.5394 6.72223 95.194 8.06746C93.8485 9.45908 93.1525 11.2218 93.1525 13.3092C93.0598 15.1647 94.498 16.6955 96.5858 17.8088Z" fill="#BDBDBD"/>
<path d="M77.562 17.67C78.6754 18.2731 80.1137 18.8761 81.5055 19.6647C82.8974 20.4533 84.1037 21.3346 84.846 22.8654C85.2172 23.6076 85.4028 24.489 85.4028 25.4167C85.4028 27.5505 84.4748 29.2669 82.9902 30.241C81.5055 31.2151 79.6961 31.679 77.7011 31.6326C77.0516 31.6326 76.4021 31.5862 75.7061 31.4471C75.0566 31.3079 74.4999 31.1688 74.0359 31.0296C73.572 30.8904 73.2008 30.7513 72.8296 30.6585C72.0873 30.4266 71.6698 30.4266 71.4842 30.8904L69.8604 30.241L72.4585 23.7004L74.0359 24.3498C73.7576 25.092 73.572 25.8806 73.5256 26.6692C73.4792 27.4578 73.6648 28.1072 74.0823 28.7102C74.4999 29.3133 75.103 29.5916 75.9381 29.5916C77.1444 29.5916 78.1651 29.2205 79.0002 28.5247C79.8353 27.8289 80.2529 26.9939 80.2529 26.0198C80.2529 24.9992 79.4178 24.1643 78.3043 23.5148C77.1444 22.8654 75.7061 22.216 74.3143 21.381C72.9224 20.5461 71.7626 19.6183 71.0202 17.9948C70.6491 17.2062 70.4635 16.3248 70.4635 15.3507C70.4635 13.2632 71.4378 11.5005 72.876 10.48C74.3143 9.45948 76.1237 8.94922 78.0723 8.94922C78.7218 8.94922 79.3714 9.042 80.0673 9.13477C80.7168 9.27393 81.2736 9.4131 81.7375 9.59865C82.2015 9.73781 82.619 9.87697 82.9902 10.0161C83.7789 10.2481 84.1965 10.2017 84.3821 9.73781L85.9131 10.3408L83.315 16.8815L81.7375 16.2784C82.1087 15.3043 82.2943 14.2838 82.1551 13.1705C82.0159 12.0572 80.9952 11.2222 79.2786 11.2222C78.3043 11.2222 77.4228 11.5933 76.6804 12.3355C75.9381 13.0777 75.567 14.0518 75.567 15.2579C75.6134 16.232 76.4485 17.0206 77.562 17.67Z" fill="#BDBDBD"/>
<path d="M47.3131 28.0579C47.3131 28.9392 47.4059 29.4495 47.4987 29.635C47.5915 29.7278 47.7771 29.8206 47.9627 29.8206V31.0267H41.4673V29.8206C41.7457 29.8206 41.9313 29.6814 41.9777 29.3567C42.0241 29.032 42.0705 28.8928 42.0705 28.2434V28.0115V13.9097C41.6993 12.8892 41.189 12.0079 40.5394 11.3584C39.8435 10.709 39.0548 10.3843 38.0805 10.3843C36.2247 10.3843 34.8328 11.1265 33.9513 12.5645C33.3018 13.6778 33.1162 14.7911 33.441 15.9972C33.7193 17.0641 34.3225 17.7135 35.204 17.8991C35.3432 17.9454 35.4823 17.9454 35.6679 17.9454C36.4566 17.9454 37.1062 17.4352 37.0598 16.6002C37.0134 16.1363 36.8742 15.8116 36.5494 15.6725C36.8742 14.7911 37.7557 14.2808 38.498 14.2808C39.2404 14.2808 39.9363 15.023 39.9827 16.2755C40.0291 17.6207 39.5187 18.6876 38.5444 19.4298C37.5701 20.2184 36.3639 20.5895 34.9256 20.5895C33.1162 20.5895 31.7707 19.8473 30.8428 18.4093C30.0077 17.0641 29.7757 15.5333 30.1469 13.817C30.5644 11.9151 31.6315 10.5235 33.3946 9.54933C34.6936 8.80713 36.2247 8.48242 37.9877 8.48242C39.3331 8.48242 40.5858 8.66798 41.6993 9.03908H48.0091C50.3288 9.13185 52.3238 9.96682 53.5765 11.2193C54.1796 11.8223 54.69 12.5645 55.1075 13.3531C55.9426 14.9303 56.0354 16.693 55.8035 18.4093C55.5251 20.1256 54.5044 21.7028 53.1589 22.8625C51.8135 24.0222 49.7257 24.718 47.3131 24.718V28.0579ZM47.3131 23.28C48.6586 23.3728 49.6329 22.5842 50.2824 20.7751C50.932 19.0587 51.0711 17.1569 50.7464 14.9766C50.4216 12.7964 49.7257 11.4048 48.705 10.7554C48.2874 10.4771 47.8235 10.3843 47.3595 10.4307C47.3595 10.5235 47.3131 10.7554 47.3131 11.1265V23.28Z" fill="#BDBDBD"/>
<path d="M70.6045 29.5471C70.4653 29.3616 70.2334 28.8049 70.0014 27.8308L66.197 12.3374C66.0578 11.7808 66.1042 11.4561 66.3826 11.4561V10.25H59.2377V11.4561C59.9336 11.4561 60.1192 11.5952 59.9336 12.291L57.4283 22.4035H56.3612L55.9436 24.1662H57.0107L55.6653 29.5935C55.5261 30.2429 55.3869 30.6604 55.2477 30.7996C55.1085 30.9388 54.8765 31.0315 54.459 31.0315V32.2376H58.2634V31.0315C57.8922 31.0315 57.6603 30.9388 57.6139 30.7996C57.5675 30.6604 57.6139 30.2429 57.753 29.6399L59.0985 24.2126H63.8308L64.7587 28.1091C64.8515 28.3875 64.8979 28.6658 64.9443 28.8977L65.4547 31.1243H71.2077V29.9182C70.9757 29.8255 70.7437 29.7327 70.6045 29.5471ZM59.5625 22.4035L61.5111 14.6104L63.4597 22.4035H59.5625Z" fill="#BDBDBD"/>
</g>
</svg>
