<svg width="163" height="163" viewBox="0 0 163 163" fill="none" xmlns="http://www.w3.org/2000/svg">
<circle cx="81.5" cy="81.5" r="81.5" fill="#21202E"/>
<rect x="81.9919" y="57.4902" width="16.8344" height="11.5909" fill="#F8F8F7"/>
<path fill-rule="evenodd" clip-rule="evenodd" d="M127.472 66.4948L127.673 66.2933L127.371 65.9912L127.271 66.1926L127.371 66.2933L127.472 66.4948Z" fill="#F8F8F7" stroke="#21202E" stroke-width="0.3" stroke-linecap="round" stroke-linejoin="round"/>
<path fill-rule="evenodd" clip-rule="evenodd" d="M81.1485 124L81.3499 123.899L81.4506 123.597L81.9541 123.194L82.357 122.993L82.7598 122.892L83.2633 122.792L83.6661 122.489L83.8675 122.087L83.364 121.885L83.2633 121.482H82.9612V121.079L82.5584 120.677L81.4506 120.274L81.3499 120.374L80.8464 120.072L80.645 119.871L80.3429 120.072L80.5443 120.475L80.645 120.677L80.2422 121.18L79.9401 121.583L80.1415 121.986L80.3429 122.489L80.4436 122.892L80.3429 123.496L80.5443 123.799H80.9471L81.1485 124ZM67.4528 114.433L67.1507 114.735L66.9493 114.936V115.137L67.05 115.238L67.2514 114.936L67.5535 114.835V114.533L67.4528 114.433ZM69.0641 113.728L68.5605 114.03L68.3591 114.332L68.4598 114.634H68.7619L69.0641 114.936H69.2655L69.6683 114.835L69.769 114.433L69.9704 114.13L69.6683 113.828L69.2655 113.929L69.0641 113.728ZM73.9985 115.44L74.4014 115.943V116.346L74.8042 116.145L74.9049 116.447L75.0056 116.749H74.7035L74.2 116.648L73.8978 116.447V116.648L73.6964 116.749L73.3943 116.447L73.1929 116.145L73.0922 115.742L73.495 115.842L73.9985 115.44ZM76.214 116.85L76.4154 116.95L76.7175 117.051H77.1204V116.95L77.3218 117.152H78.0267L77.6239 117.454H77.2211L76.919 117.252L76.3147 117.353H76.1133L76.0126 117.152L76.214 117.051V116.85ZM76.919 117.857H77.2211L77.6239 118.159L77.3218 118.461L77.0197 118.36V118.058L76.8183 117.957L76.919 117.857ZM78.3288 118.864L77.926 118.964V119.065L78.1274 119.166L78.4295 119.065L78.3288 118.864ZM78.5302 118.26L78.7316 118.461V118.763L78.8323 118.965L79.0337 118.864H79.3358L79.5373 118.662L79.7387 118.763L80.0408 118.461V118.26L79.7387 118.058L79.2351 117.756L78.8323 117.957L78.6309 117.857L78.1274 117.353L78.0267 117.655L77.926 117.857L78.2281 118.26H78.5302Z" fill="#F8F8F7" stroke="#21202E" stroke-width="0.3" stroke-linecap="round" stroke-linejoin="round"/>
<path fill-rule="evenodd" clip-rule="evenodd" d="M59.213 53.9897C57.3607 53.8611 53.656 53.4023 53.656 53.4023L52.5483 64.4805C52.5483 64.4805 56.6633 64.8791 58.7208 65.028C61.7656 65.2483 67.8553 65.5884 67.8553 65.5884L68.1574 54.4095C68.1574 54.4095 62.1944 54.1968 59.213 53.9897Z" fill="#F8F8F7" stroke="#21202E" stroke-width="0.3" stroke-linecap="round" stroke-linejoin="round"/>
<path fill-rule="evenodd" clip-rule="evenodd" d="M46.4055 60.9551L44.6935 74.8532C44.6935 74.8532 47.7699 75.2835 49.308 75.4483C51.5295 75.6864 55.9724 76.0617 55.9724 76.0617L56.8787 64.8828L52.5484 64.48L52.8505 61.7608L46.4055 60.9551Z" fill="#F8F8F7" stroke="#21202E" stroke-width="0.3" stroke-linecap="round" stroke-linejoin="round"/>
<path fill-rule="evenodd" clip-rule="evenodd" d="M72.6143 60.1261C71.095 60.1001 68.0566 59.9475 68.0566 59.9475L68.1573 54.4084H68.258L68.3587 51.8906C68.3587 51.8906 73.969 51.9913 76.8178 51.9913C79.0714 51.9913 83.6657 51.8906 83.6657 51.8906L83.565 52.1928L83.3636 52.4949L83.0614 52.6963L83.3636 53.3006L83.7664 53.4013L83.9678 53.7034L84.0685 58.6383H83.7664V58.8397L83.9678 59.0411L83.8671 59.3432L84.0685 59.5447L83.9678 60.3503L83.7664 60.6525L84.0685 61.3574H83.8671L83.6657 61.0553V60.8539H83.3636L83.2628 60.7532L82.9607 60.6525H82.6586L82.3565 60.3503L81.853 60.451H81.1481L80.9467 60.6525H80.6446L79.8389 60.1489C79.8389 60.1489 75.0225 60.1673 72.6143 60.1261Z" fill="#F8F8F7" stroke="#21202E" stroke-width="0.3" stroke-linecap="round" stroke-linejoin="round"/>
<path fill-rule="evenodd" clip-rule="evenodd" d="M76.1134 51.9918C73.5134 51.9918 68.3592 51.8911 68.3592 51.8911L68.5606 43.6328C68.5606 43.6328 72.3537 43.7618 74.2502 43.776C76.8518 43.7954 82.0549 43.7335 82.0549 43.7335L82.357 44.5392L82.2563 44.8413V45.9492L82.8605 47.3591L82.9612 47.8627V48.6684L83.0619 49.1719V49.3733L83.1626 50.0783L83.2634 50.4812L83.5655 50.884L83.6662 51.8911C83.6662 51.8911 78.6158 51.9918 76.1134 51.9918Z" fill="#F8F8F7" stroke="#21202E" stroke-width="0.3" stroke-linecap="round" stroke-linejoin="round"/>
<path fill-rule="evenodd" clip-rule="evenodd" d="M55.9723 76.0615C55.9723 76.0615 59.6222 76.3754 61.4472 76.482C64.221 76.6439 69.7687 76.8672 69.7687 76.8672V78.2772H69.5673L69.1645 91.0674L60.6047 90.6646V90.9667L60.9068 91.2689L56.7779 90.9667L56.6772 92.276L54.6631 92.0746L55.9723 76.0615Z" fill="#F8F8F7" stroke="#21202E" stroke-width="0.3" stroke-linecap="round" stroke-linejoin="round"/>
<path fill-rule="evenodd" clip-rule="evenodd" d="M72.1857 65.5881V68.5087C72.1857 68.5087 76.2007 68.5544 78.2082 68.5269C81.1016 68.4872 86.8884 68.3072 86.8884 68.3072L86.687 68.1058V67.9044L86.4856 67.6023L86.1835 67.4008L85.9821 66.8973L85.7807 66.7966V66.3937L85.5793 66.1923V65.7895V64.9838L85.3779 64.7824L85.5793 64.6817L85.2772 64.4802V64.1781L84.975 63.876L85.0758 63.2717L84.8743 63.0703V62.7681L84.6729 62.6674L84.5722 62.3653L84.3708 62.2646V61.8617L84.2701 61.3582H83.8673L83.6659 61.0561V60.8546H83.3638L83.2631 60.7539L82.961 60.6532H82.6589L82.3568 60.3511L81.8532 60.4518H81.6518H81.1483L80.9469 60.6532H80.6448L79.8392 60.1497C79.8392 60.1497 74.9032 60.166 72.4353 60.1238C70.9758 60.0989 68.0568 59.9482 68.0568 59.9482L67.8554 65.5881H72.1857Z" fill="#F8F8F7" stroke="#21202E" stroke-width="0.3" stroke-linecap="round" stroke-linejoin="round"/>
<path fill-rule="evenodd" clip-rule="evenodd" d="M60.7442 54.1195C63.1147 54.283 68.2585 54.4086 68.2585 54.4086L68.5606 43.6325C68.5606 43.6325 64.8501 43.5041 60.912 43.224C58.557 43.0565 56.1206 42.77 54.3477 42.604C51.1969 42.309 44.8952 41.5176 44.8952 41.5176L44.4924 44.0354L44.8952 44.6396L45.0966 45.1432L44.9959 45.3446L45.0966 45.6467H44.9959L45.3987 46.1503L45.7008 46.3517L46.4057 47.2581L46.305 47.4595L46.7079 47.8624H46.9093V48.1645H47.5135L47.1107 49.373L46.9093 49.4737L47.01 50.2794L46.7079 50.3801V50.9844L47.1107 51.3872L47.9163 50.783L48.1177 51.1858L48.3191 51.9915L48.7219 52.7972L48.6212 53.2L48.9233 53.5022H49.2254L49.4269 54.3079L49.8297 54.7107L50.0311 54.4086L50.736 54.61L50.9374 54.3079L51.8437 54.4086L51.9445 54.5093H52.5487L52.7501 54.1064H52.9515L53.455 54.8114L53.5557 54.7107L53.6564 53.4015C53.6564 53.4015 58.2473 53.9473 60.7442 54.1195Z" fill="#F8F8F7" stroke="#21202E" stroke-width="0.3" stroke-linecap="round" stroke-linejoin="round"/>
<path fill-rule="evenodd" clip-rule="evenodd" d="M79.9705 68.5021C77.3756 68.5377 72.1857 68.5081 72.1857 68.5081L71.9843 76.8671C71.9843 76.8671 77.4336 77.0032 80.1583 76.9706C83.0394 76.9361 88.8018 76.6656 88.8018 76.6656L88.6004 70.5223L88.399 70.4216H88.0969L87.8955 70.1194V69.918L87.5933 69.7166L87.3919 69.5152L87.5933 69.213L87.694 69.0116L87.8955 68.9109L87.7947 68.6088L87.5933 68.5081L87.3919 68.6088L86.8884 68.3066C86.8884 68.3066 82.2765 68.4705 79.9705 68.5021Z" fill="#F8F8F7" stroke="#21202E" stroke-width="0.3" stroke-linecap="round" stroke-linejoin="round"/>
<path fill-rule="evenodd" clip-rule="evenodd" d="M85.7807 66.5946C85.7807 66.5946 88.6667 66.5313 90.1097 66.4493C91.6207 66.3635 94.6426 66.0911 94.6426 66.0911L95.3475 66.6953L95.4482 66.5946L95.3475 66.1918L95.9518 65.7889V65.3861L96.3546 64.9832L96.2539 64.6811L95.8511 64.2783L96.0525 63.674L96.8581 63.4726L97.4623 63.0697V62.6669L97.7644 62.3647L97.6637 61.5591L97.0595 61.3576V61.0555L96.556 60.6527L96.3546 60.1491H95.7504L95.4482 59.5448L95.3475 58.8399L95.5489 58.5377L95.2468 58.3363L95.1461 58.0342L83.7666 58.6384V58.8399L83.968 59.0413L83.8673 59.3434L84.0687 59.5448L83.968 60.3505L83.7666 60.6527L84.0687 61.3576H84.2701L84.3708 61.8612V62.264L84.5722 62.3647L84.6729 62.6669L84.8743 62.7676V63.0697L85.0758 63.2711L84.975 63.8754L85.2772 64.1775V64.4797L85.5793 64.6811L85.3779 64.7818L85.5793 64.9832V66.1918L85.7807 66.3932V66.5946Z" fill="#F8F8F7" stroke="#21202E" stroke-width="0.3" stroke-linecap="round" stroke-linejoin="round"/>
<path fill-rule="evenodd" clip-rule="evenodd" d="M52.8504 61.7608L53.4546 54.8118L52.9511 54.1068H52.7497L52.5482 54.5097H51.944L51.8433 54.4089L50.937 54.3082L50.7356 54.6104L50.0306 54.4089L49.8292 54.7111L49.4264 54.3082L49.225 53.5025H48.9229L48.6208 53.2004L48.7215 52.7976L48.3187 51.9919L48.1173 51.1862L47.9159 50.7834L47.1102 51.3876L46.7074 50.9848V50.3805L47.0095 50.2798L46.9088 49.4741L47.1102 49.3734L47.5131 48.1649H46.9088V47.8627H46.7074L46.3046 47.4599L46.4053 47.2585L45.7004 46.3521L45.3983 46.1507L44.9955 45.6471H45.0962L44.9955 45.345L45.0962 45.1435L44.8948 44.64L44.4919 44.0357L44.8948 41.518L42.9814 41.2158L41.8736 48.1649L42.075 48.5677V48.7691L41.9743 48.8698L42.075 49.4741L42.6793 49.9777L42.78 50.4812L42.2765 51.0855L42.1758 51.2869L41.7729 51.8912L41.6722 52.1933L41.2694 52.5962L40.7659 53.2004L40.6652 53.8047L41.068 53.9054L41.2694 54.1068L41.068 54.3082V54.6104L40.8666 55.0132L40.061 60.0488L46.4053 60.9552L52.8504 61.7608Z" fill="#F8F8F7" stroke="#21202E" stroke-width="0.3" stroke-linecap="round" stroke-linejoin="round"/>
<path fill-rule="evenodd" clip-rule="evenodd" d="M52.0449 108.893L49.628 96.4053L49.4266 96.506L49.0238 96.3046L48.7217 96.1032H48.3189L47.9161 96.2039L47.7147 96.3046H47.3118L47.1104 96.2039H46.6069L46.2041 96.1032L45.902 96.0025L45.5999 95.8011L45.0964 96.0025L44.9956 95.9018L44.5928 96.1032L44.2907 96.0025V95.8011L43.9886 95.7003L44.19 95.4989L43.6865 95.3982L43.2837 95.4989H42.9816L43.0823 95.2975L42.8809 95.0961L42.5788 95.5996L42.3774 95.2975L42.6795 95.0961L42.1759 94.7939L41.8738 95.0961L41.471 95.3982H40.8668L40.5647 95.5996L40.2626 95.9018L39.8598 96.1032L39.6583 96.0025L39.1548 96.6067L38.8527 97.0096L38.752 97.3117L38.4499 97.6138H37.8457L37.3422 97.5131L37.2415 98.0167L37.0401 98.2181L37.4429 98.7217L38.0471 99.3259L38.2485 99.7288L38.1478 100.031L38.752 100.333H39.2555L39.3562 100.434L39.1548 100.635V100.937H39.3562H39.6583L39.9605 101.038V101.34H39.6583L39.4569 101.038L39.0541 101.139L39.3562 101.239L39.4569 101.542L39.2555 101.441L39.0541 101.743L38.6513 101.642L38.4499 101.542L37.9464 101.441L37.8457 101.239L38.1478 100.837L37.745 100.736L37.4429 100.937H37.1408L36.9393 101.038L37.0401 101.239L36.6372 101.139L36.1337 101.441L35.5295 101.542L35.7309 101.944L36.4358 102.347L36.1337 102.549L36.2344 102.851L36.1337 103.153L36.5365 103.455L37.0401 103.556L37.3422 103.455L37.8457 103.556L37.9464 103.757L38.2485 103.858L38.4499 103.556L38.9534 103.354L39.2555 103.254L39.4569 103.556L39.2555 103.858H38.9534L39.1548 104.16L39.2555 104.764L39.0541 105.167L38.4499 105.268L38.2485 104.966L38.1478 105.268L37.745 105.57H37.5436L37.2415 105.268L36.9393 105.469L36.6372 105.771V106.174L36.3351 106.275L35.9323 106.779V106.98L35.6302 107.081L35.8316 107.282L35.6302 107.383L35.7309 107.685L35.8316 108.088L36.033 107.987L36.2344 108.289L37.1408 108.591V108.793L36.9393 108.893L36.7379 108.692H36.5365L36.2344 108.491L35.8316 108.793L36.2344 109.296L36.5365 109.8L36.8386 110.001L37.3422 109.8L37.6443 109.598L37.745 109.196V109.598L37.9464 110.303L38.0471 110.606L37.8457 110.807L37.9464 111.21L37.745 111.713L38.0471 111.814L38.9534 111.21L39.0541 111.512L39.3562 111.613L39.8598 112.217L40.0612 112.116L39.9605 111.613L40.2626 111.311V111.814L40.3633 112.016L41.2696 111.613L41.471 111.411L41.0682 112.016L40.7661 112.519L41.0682 112.62L40.7661 112.72V113.325V113.627L40.5647 113.526L40.0612 113.929L39.9605 114.13L39.8598 114.533L39.6583 114.433L39.0541 114.735L38.4499 115.138L38.3492 115.44L38.5506 115.742L38.2485 115.641L37.8457 115.339L37.2415 115.54L36.7379 116.044L36.3351 116.245L36.1337 116.447L35.7309 116.346L35.4288 116.547L35.1267 116.447L34.9253 116.749L34.8246 116.85L34.9253 117.152L35.2274 117.051L35.4288 116.95L35.8316 117.051L36.2344 116.648H36.5365L36.7379 116.447H37.0401L37.4429 116.044L37.6443 115.843L37.8457 115.943L37.6443 116.245L38.0471 116.044V116.346L38.2485 116.547L38.3492 116.346L38.2485 116.044L38.6513 115.843L39.1548 115.641L39.6583 115.54L39.9605 115.138L40.1619 114.835L40.7661 114.634L41.0682 114.332L41.471 114.231L41.5717 113.828L41.9745 113.425L42.4781 113.224L42.6795 112.821L43.183 112.72L43.2837 112.217L43.7872 111.915L43.8879 111.713L43.4851 111.411L43.183 111.512L43.3844 111.008L43.6865 110.606H43.9886L44.2907 110.102L44.0893 109.8L44.4921 109.598L44.7942 109.095L44.9956 108.692H45.1971L45.4992 108.39H45.902L46.4055 108.793L45.902 108.893L45.7006 108.692L45.2978 109.196H45.0964L45.1971 109.598L44.8949 110.102V110.606L45.0964 110.706L45.3985 110.505L44.7942 111.008V111.311L45.2978 111.21L45.5999 111.008L45.902 110.606L46.6069 110.001L47.1104 110.102L47.3118 109.498L47.0097 109.095L47.3118 108.491L47.4125 108.793L47.9161 108.692L48.4196 108.793L48.9231 109.095L48.4196 109.397H49.2252L49.5273 108.994V109.397L50.1315 109.598L50.6351 109.498L51.2393 109.397H51.7428L52.0449 109.498L52.5484 109.699L52.9512 109.296L53.2534 109.196V109.598L53.052 109.8L53.9583 110.102L54.7639 110.505L55.2674 110.807L55.5695 110.908L55.9724 110.706L55.4688 110.203L55.8717 110.001L56.1738 110.505L56.4759 110.606L56.6773 110.706L55.8717 109.397L56.8787 110.404L57.0801 110.807C57.0801 110.807 56.9728 110.807 56.8787 110.807C56.8049 110.807 56.5766 110.807 56.5766 110.807L55.9724 110.908L55.8717 111.411L56.2745 111.814L56.778 112.318L57.3822 112.922L57.8857 113.224L57.4829 112.318L56.9794 111.713L57.4829 112.116L57.8857 111.512L57.4829 110.908L57.9864 111.109L58.2886 111.613L58.5907 111.915L58.0871 112.016L57.785 112.318L58.1878 112.922L58.3893 113.224L58.5907 112.821L58.9935 112.318L59.0942 112.922L58.8928 113.627L59.3963 114.332L59.7991 114.735L60.0005 114.332L60.4033 114.433L60.1012 113.929L59.2956 113.123V112.72L59.7991 113.224L60.3026 113.627L60.8061 114.13V113.425L61.3097 114.13L61.6118 113.325L61.3097 112.72L61.209 112.318H60.8061L59.8998 112.016H59.497L59.0942 111.411L57.785 110.203L57.3822 109.8L56.8787 109.598L56.3752 109.196L55.9724 108.692L55.3681 109.095V109.699L54.8646 110.102L54.6632 109.699L53.6562 109.196L53.3541 108.994V108.491L52.8505 108.692L52.7498 108.893H52.347H52.0449ZM17.5035 113.425L17.3021 113.123L17 113.023V113.224L17.2014 113.325L17.5035 113.425ZM20.726 116.346V116.547H20.9274L20.726 116.346ZM20.1218 115.843L19.9204 116.044L19.719 116.245L20.2225 116.145L20.1218 115.843ZM20.8267 116.85L21.1289 117.252L21.2296 117.454L21.0282 117.353L20.726 116.95L20.8267 116.85ZM21.7331 116.749H21.5317V116.95L21.8338 116.85L21.7331 116.749ZM23.6464 117.756L23.445 117.555H23.3443L23.445 117.857L23.6464 117.756ZM25.157 118.159H24.7542L24.6535 117.857L24.3514 118.058L24.15 118.26H24.7542L25.157 118.159ZM27.4732 118.562L27.1711 118.461L26.869 118.36L26.9697 118.058H26.5669L26.2647 118.26L25.5598 118.159L25.8619 118.36H26.4662L27.0704 118.562H27.4732ZM29.588 118.36L29.4873 118.562H29.7894L29.588 118.36ZM30.4943 118.26H30.2929H30.1922L30.3936 118.461L30.4943 118.26ZM32.0049 117.756L31.7028 117.857V118.058H31.4006L31.1992 118.36L30.8971 118.562L31.5013 118.36L31.7028 118.159L32.2063 118.058L32.0049 117.756ZM33.2133 117.353H32.8105V117.655L32.7098 117.957L32.307 118.058L32.5084 118.26L33.0119 118.159L33.2133 117.857L33.6161 117.756L33.4147 117.555L33.2133 117.353ZM34.1196 117.152L33.9182 117.353L33.7168 117.252L33.8175 117.555L34.1196 117.454L34.5225 117.655L34.7239 117.454L34.2203 117.353L34.1196 117.152ZM44.4921 112.016L44.3914 112.418H44.8949L44.9956 112.62L44.4921 112.72L44.2907 112.922H44.5928L44.4921 113.425H44.6935L44.4921 113.728L43.9886 113.526L44.3914 113.828H44.0893V114.03L43.7872 114.332H43.5858L43.2837 114.634L43.3844 114.936H42.8809L43.2837 114.433L42.9816 114.332L42.8809 113.929L42.7802 113.627L43.183 113.425L43.4851 113.627L43.2837 113.123H43.6865L43.7872 112.821L44.19 112.519L44.4921 112.016Z" fill="#F8F8F7" stroke="#21202E" stroke-width="0.3" stroke-linecap="round" stroke-linejoin="round"/>
<path fill-rule="evenodd" clip-rule="evenodd" d="M131.399 47.9632L135.025 46.9561L135.125 47.0568L135.226 47.2582L135.025 47.661L135.327 48.0639L135.226 48.1646V48.366L134.924 48.8696L134.823 48.9703H134.622L134.521 49.1717L134.622 49.4738V49.776V50.1788L134.521 50.2795V50.6824L134.42 50.8838V51.1859L134.32 51.2866L134.42 51.8909L134.521 51.9916L134.42 52.3944L134.521 52.5959V52.898L134.42 52.9987V53.3008L134.823 53.603L133.111 53.9051L133.011 53.8044L132.608 51.9916V51.7902L132.406 51.5888L132.205 51.7902V51.1859L132.104 51.0852V50.9845L132.004 50.8838L131.903 50.5816H131.802V50.0781L131.903 49.8767L131.701 49.5745L131.601 49.1717L131.5 48.9703V48.4667L131.399 48.366V47.9632Z" fill="#F8F8F7" stroke="#21202E" stroke-width="0.3" stroke-linecap="round" stroke-linejoin="round"/>
<path fill-rule="evenodd" clip-rule="evenodd" d="M117.2 72.0337V72.1344H117.301V72.3358H117.402V72.5373H117.502L117.603 72.7387H117.905L118.006 72.8394L118.308 72.9401L118.61 72.638L118.711 72.4366L119.113 72.638L119.315 72.4366H119.718L119.818 72.2351L119.718 72.0337L119.919 71.933L120.121 72.0337L120.523 71.7316L120.624 71.8323L121.027 71.5302L120.926 71.4294L121.128 71.228V71.1273H120.926V70.9259L121.027 70.6238L121.43 70.0195L121.53 69.6166L121.43 69.5159L121.732 69.2138L121.631 69.1131L121.832 68.811V68.4081L121.933 68.3074H122.135L122.336 68.5088H122.739L122.94 68.3074V68.0053L123.041 67.9046V67.6024L123.142 67.401L123.242 67.3003L123.544 67.401L123.645 66.9982H123.847V66.8975L124.048 66.696V66.4946L124.249 66.1925V65.8903L124.35 65.6889L124.249 65.4875L124.35 65.3868L125.559 65.9911L125.659 65.3868V65.1854L125.458 65.0847L125.357 64.8832H125.256L125.357 64.6818L124.954 64.7825L124.551 64.5811L124.451 64.6818L124.35 64.8832H124.048L123.947 65.1854L123.746 65.2861H123.444L123.242 64.9839V65.2861L122.94 65.5882H122.638L122.537 65.7896L122.336 66.0918L121.933 66.4946L121.631 65.0847L119.416 65.4875L118.912 62.9697L118.61 63.1711L118.912 63.3726L118.811 63.6747L118.912 63.9768L118.811 64.3797V64.8832L118.711 65.4875V65.8903L118.207 66.1925V66.4946L117.804 66.8975L117.603 66.696L117.301 66.8975V67.0989L117.099 67.1996L116.999 67.6024L116.898 67.8038L116.999 67.9046V68.106L116.797 68.3074H116.697V68.106L116.495 68.0053L116.294 68.2067L116.193 68.5088V68.7102L116.294 69.2138L116.092 69.3145V69.6166L115.488 69.9188L115.589 70.2209L115.488 70.6238L115.891 71.0266L115.992 71.228L116.394 71.7316L116.898 72.0337H117.2Z" fill="#F8F8F7" stroke="#21202E" stroke-width="0.3" stroke-linecap="round" stroke-linejoin="round"/>
<path fill-rule="evenodd" clip-rule="evenodd" d="M130.997 72.3358V72.1343H131.097V71.6308L130.896 71.3287H130.191L130.292 71.6308L129.99 71.5301L129.788 71.7315V71.4294L129.285 71.228V70.9258H128.983H128.681L128.479 70.7244L127.774 70.8251V70.6237L128.58 70.523L128.681 70.7244L128.781 70.4223L128.882 70.7244H129.285H129.385V70.9258L129.99 71.228L130.191 71.0265L129.99 70.9258V70.7244L129.788 70.6237H129.486L128.781 70.0194V69.818L129.486 70.4223H129.788L129.587 70.2208L129.688 69.9187L130.09 70.2208L129.99 69.9187L129.688 69.7173L129.285 69.6166L129.083 69.3144L128.781 69.2137L128.378 68.9116L128.076 68.5088H127.875L127.573 68.408L127.673 68.3073H128.076L128.781 69.0123H128.983L129.385 69.4152V69.2137L129.688 69.4152V69.0123L129.587 68.8109L129.788 68.7102L129.486 68.6095L129.083 68.5088L128.983 68.3073L128.681 68.2066L128.479 68.3073L128.076 68.2066L127.774 67.9045V67.7031L127.472 68.0052H127.069V67.8038V67.7031V67.0988L127.271 66.8974L127.472 66.7967V66.4945L127.371 66.2931L127.271 66.1924H126.969L126.868 65.991H126.465L126.264 65.7896L126.364 65.4874L126.062 65.3867H125.659L125.559 65.991L124.35 65.3867L124.25 65.4874L124.35 65.6889L124.25 65.8903V66.1924L124.048 66.4945V66.696L123.847 66.8974V66.9981H123.645L123.545 67.4009L123.243 67.3002L123.142 67.4009L123.041 67.6024V67.9045L122.94 68.0052V68.3073L122.739 68.5088H122.336L122.135 68.3073H121.933L121.833 68.408V68.8109L121.631 69.113L121.732 69.2137L121.43 69.5159L121.531 69.6166L121.43 70.0194L121.027 70.6237L120.926 70.9258V71.1272H121.128V71.228L120.926 71.4294L121.027 71.5301L120.624 71.8322L120.524 71.7315L120.121 72.0336L119.919 71.9329L119.718 72.0336L119.819 72.2351L119.718 72.4365H119.315L119.114 72.6379L118.711 72.4365L118.61 72.6379L118.308 72.94L118.006 72.8393L117.905 72.7386H117.603L117.502 72.5372H117.402V72.3358H117.301V72.1343H117.2L116.495 73.0407L115.79 73.4436V73.7457L115.589 73.9471V74.1486L115.086 74.35L114.985 74.6521L113.877 75.2564L118.308 74.5514V74.6521L130.997 72.3358ZM131.097 68.1059V68.3073L130.997 68.408L131.097 68.6095L130.896 68.9116L130.795 69.2137V69.6166L130.695 70.0194L130.795 70.4223L130.896 70.523L130.997 70.2208V69.6166L131.097 69.3144L131.4 69.4152V68.8109L131.601 68.408L131.5 68.2066V67.9045L131.097 68.1059Z" fill="#F8F8F7" stroke="#21202E" stroke-width="0.3" stroke-linecap="round" stroke-linejoin="round"/>
<path fill-rule="evenodd" clip-rule="evenodd" d="M136.636 55.2142L137.039 56.6242V57.027L137.24 56.9263L137.442 56.7249H137.744V56.5235V56.3221L137.643 56.1206L137.744 55.9192H137.542L137.643 55.7178L137.542 55.5164L137.643 55.4157V55.2142H137.542L137.442 54.9121L136.636 55.2142Z" fill="#F8F8F7" stroke="#21202E" stroke-width="0.3" stroke-linecap="round" stroke-linejoin="round"/>
<path d="M144.032 118.018L144.123 118.086L144.111 118.097L144.057 118.11L144.102 118.134L144.052 118.156L144.007 118.16L143.971 118.145L143.943 118.111L143.908 118.124L143.985 118.192L144.008 118.231V118.288L143.901 118.207L143.627 118.091L143.621 118.071L143.741 118.028L143.891 118.004L144.032 118.018ZM144.29 119.011L144.261 119.043L144.127 119.083L144.099 119.107L144.029 119.205L144.014 119.243L143.979 119.256L143.922 119.231L143.855 119.273L143.777 119.346L143.425 119.575L143.361 119.643L143.248 119.647L143.102 119.72L142.952 119.75L142.824 119.634L142.9 119.603L142.924 119.598L143.019 119.554L143.104 119.482L143.172 119.397L143.221 119.314L143.259 119.273L143.627 119.068L143.694 119.056L143.884 119.052L144.147 118.967L144.221 118.969L144.29 119.011ZM135.092 120.154L135.644 120.082L136.131 119.838L136.204 119.822L136.412 119.823L136.485 119.8L136.663 119.692L136.933 119.57L137.069 119.537L137.215 119.541L137.291 119.496L137.607 119.389L137.822 119.378L138.21 119.148L138.636 119.128L138.836 118.981L139.126 118.972L139.166 118.913L139.233 118.9L139.284 118.933L139.311 118.955L139.36 118.958L139.398 118.914L139.418 118.849L139.472 118.846L139.482 118.922L139.594 118.938L139.627 118.981L139.682 119.035L139.757 119.011L139.902 118.906L139.887 118.868L139.802 118.884L139.698 118.873L139.602 118.827L139.518 118.787L139.878 118.774L139.963 118.761L140.027 118.757L140.112 118.747L140.169 118.687L140.189 118.606L140.309 118.591L140.556 118.574L140.616 118.497L140.677 118.487L140.755 118.51L140.924 118.488L141.027 118.504L141.15 118.566L141.195 118.523L141.213 118.458H141.246L141.26 118.481L141.246 118.521L141.24 118.566L141.274 118.544L141.318 118.503L141.341 118.473L141.468 118.565L141.567 118.579L141.613 118.508L141.784 118.566L141.962 118.527L142.026 118.434L142.052 118.383L142.082 118.342L142.125 118.338L142.141 118.371L142.185 118.644L142.251 118.861L142.295 118.914L142.296 118.985L142.346 119.008L142.391 119.011L142.447 118.953L142.45 119.005L142.479 119.037L142.566 119.097L142.527 119.152L142.537 119.198L142.494 119.218L142.419 119.16L142.365 119.18V119.239L142.439 119.289L142.405 119.345L142.344 119.357L142.246 119.343L142.17 119.404L142.097 119.478L142.007 119.537L141.941 119.603L141.884 119.716L141.807 120.049L141.843 120.19L141.807 120.303L141.787 120.329L141.684 120.395L141.669 120.435L141.772 120.568L141.71 120.69L141.565 120.87L141.341 121.051L141.229 121.087L141.111 121.105L141.005 121.13L140.949 121.166L140.825 121.274L140.793 121.291L140.64 121.339L140.547 121.402L140.314 121.659L140.252 121.685L140.2 121.702L140.153 121.722L140.122 121.762L140.089 121.738L140.079 121.729L140.067 121.705L140.115 121.669L140.119 121.638L140.088 121.614L140.028 121.599L139.963 121.719L139.915 121.755L139.837 121.76L139.696 121.795L139.645 121.8L139.609 121.779L139.578 121.752L139.543 121.73L139.468 121.719L139.422 121.726L139.344 121.76L139.237 121.825L139.131 121.972L139.027 121.997L138.905 121.955L138.792 121.888L138.689 121.865L138.604 121.918L138.537 121.951L138.493 121.997L138.427 122.037L138.268 122.103L138.225 122.148L138.188 122.197L138.133 122.229L138.041 122.22L138.013 122.253L137.982 122.279L137.928 122.231L137.842 122.257L137.651 122.355L137.608 122.356L137.441 122.351L137.239 122.422L137.217 122.35L137.166 122.342L137.105 122.383L137.056 122.444L137.069 122.48L137.138 122.456L137.107 122.553L137.027 122.642L136.926 122.714L136.829 122.766L136.671 122.815L136.601 122.849L136.544 122.863L136.518 122.874L136.505 122.9L136.509 122.939L136.524 122.991L136.428 123.012L136.341 122.985L136.188 122.904L136.084 122.932L135.969 122.954L135.848 122.995L135.77 122.998L135.722 123.08L135.657 123.153L135.589 123.194L135.527 123.207L135.35 123.248L135.222 123.224L135.182 123.284L135.257 123.393L135.203 123.407L135.094 123.321L135.052 123.283L135.003 123.137L135.102 123.041L135.131 123.012L135.173 122.983L135.203 122.951L135.207 122.906L135.177 122.883L135.121 122.874L135.058 122.909L134.987 122.902L134.957 122.806L134.972 122.745L135.01 122.694L134.971 122.648L134.922 122.57L134.957 122.5L134.895 122.331L134.882 122.127L134.906 122.073L134.935 122.019L134.942 121.952L134.89 121.906L134.809 121.873L134.644 121.652L134.566 121.572L134.446 121.589L134.351 121.596L134.221 121.469L134.145 121.411L134.075 121.332L134.072 121.295L134.198 121.204L134.295 121.117L134.374 121.046L134.429 120.979L134.519 120.84L134.487 120.722L134.401 120.652L134.351 120.523L134.4 120.372L134.622 120.219L134.888 120.138L135.092 120.154ZM131.635 123.933L131.592 123.954L131.543 123.965L131.516 123.958L131.469 123.922L131.302 123.89L131.245 123.832L131.252 123.745L131.3 123.694L131.584 123.592L131.616 123.589L131.689 123.623L131.704 123.658L131.686 123.702L131.668 123.811L131.653 123.84L131.644 123.868L131.653 123.913L131.635 123.933Z" fill="#F8F8F7" stroke="#21202E" stroke-width="0.3" stroke-linecap="round" stroke-linejoin="round"/>
<path fill-rule="evenodd" clip-rule="evenodd" d="M134.824 53.6031L136.938 53.0996L137.24 52.9989L137.442 52.596H137.543L137.643 52.3946L137.845 52.2939H138.046V51.9917L138.147 51.7903L137.744 51.5889V51.2868L137.341 51.0853V50.7832L137.14 50.2797L135.73 46.0498L135.629 46.2512L135.327 46.1505L135.226 46.2512V46.4526L135.126 46.7548V47.0569L135.226 47.2583L135.025 47.6612L135.327 48.064L135.226 48.1647V48.3662L134.924 48.8697L134.824 48.9704H134.622L134.521 49.1718L134.622 49.474V50.179L134.521 50.2797V50.6825L134.421 50.8839V51.1861L134.32 51.2868L134.421 51.891L134.521 51.9917L134.421 52.3946L134.521 52.596V52.8981L134.421 52.9989V53.301L134.824 53.6031Z" fill="#F8F8F7" stroke="#21202E" stroke-width="0.3" stroke-linecap="round" stroke-linejoin="round"/>
<path fill-rule="evenodd" clip-rule="evenodd" d="M121.631 65.084L121.933 66.494L122.336 66.0911L122.537 65.789L122.638 65.5876H122.94L123.242 65.2855V64.9833L123.444 65.2855H123.746L123.947 65.1847L124.048 64.8826H124.35L124.451 64.6812L124.551 64.5805L124.954 64.7819L125.357 64.6812L125.256 64.8826H125.357L125.458 65.084L125.659 65.1847V65.3862H126.062L126.364 65.4869L126.263 65.789L126.465 65.9904H126.868L126.968 66.1918H127.27L127.371 65.9904L127.673 66.2926L127.572 66.494V66.6954L127.472 66.8968V67.0982L127.27 67.4004V67.7025H127.472V67.4004L127.673 67.5011L127.774 67.4004L127.975 67.7025L128.177 67.8032L128.076 67.5011L128.277 67.7025L128.378 67.9039L128.68 67.8032L128.882 67.9039L128.982 68.0046L129.184 67.9039L129.385 68.2061L129.486 68.0046L129.184 67.7025H129.083L128.781 67.5011L128.579 67.4004L128.378 67.0982V66.6954L128.579 67.0982L128.781 67.2997L129.184 67.5011V67.4004L128.781 66.9975V66.6954L128.579 66.494V66.2926V65.9904L128.378 65.8897L128.579 65.789L128.277 65.6883L128.579 65.3862L128.177 65.084L128.378 64.9833L128.479 65.084V64.8826L128.68 64.6812L128.579 64.5805L128.781 64.4798L128.882 64.6812V64.2783L128.982 64.4798L129.184 64.3791L129.083 64.1776L129.184 63.9762L129.385 63.7748L129.486 64.0769L129.687 63.8755V64.0769L129.486 64.2783L129.788 64.3791L129.687 64.4798L129.284 64.5805L129.083 64.8826V65.2855L129.284 65.1847H129.385L129.284 65.5876L129.184 65.6883H128.982V65.8897L129.385 65.6883L129.486 65.8897L129.385 66.0911H129.587L129.486 66.2926L129.385 66.3933L129.687 66.5947L129.889 66.494L129.989 66.6954L129.385 66.7961L129.486 66.9975L129.385 67.199L129.788 67.2997L129.989 67.6018V67.2997H130.191L130.392 66.9975V67.2997V67.5011H130.493L130.392 67.7025H130.594L130.694 67.9039L130.594 68.2061L131.097 68.1054L131.601 67.9039V67.6018L131.802 67.5011L131.701 67.199L132.003 67.0982V66.8968L131.802 66.5947L130.594 66.8968L129.687 63.4727L121.631 65.084Z" fill="#F8F8F7" stroke="#21202E" stroke-width="0.3" stroke-linecap="round" stroke-linejoin="round"/>
<path fill-rule="evenodd" clip-rule="evenodd" d="M137.744 39.4028L136.838 41.7192L136.938 42.4242L136.737 42.7263V42.9277L136.636 43.2299L136.838 43.3306L136.737 43.4313V43.8341H136.938L136.737 44.237V44.5391L136.435 44.9419L136.334 45.2441L136.535 45.4455L136.435 45.6469L136.233 45.5462V45.6469V46.0498L135.931 45.7476L135.73 46.0498L137.341 50.7832V51.0853L137.744 51.2867V51.5889L138.147 51.7903L138.247 51.2867L138.147 50.8839L138.449 50.6825L138.55 50.5818L138.449 50.1789L138.751 50.0782L138.55 49.6754L138.952 49.1718H139.154V49.4739L139.254 49.2725L139.456 49.4739L139.557 49.2725L139.053 48.6682L139.557 49.0711V48.5675L139.859 49.0711L140.06 48.3661L140.362 48.5675L140.564 48.3661L140.664 47.9633L140.564 47.2583L140.664 47.0569L140.866 46.7547L140.966 46.9562L141.168 47.2583H141.47L141.571 46.8554L141.873 46.9562L142.074 47.1576L142.276 46.5533L142.074 46.3519L142.477 46.5533L142.779 46.3519L143.081 45.7476H143.283L143.685 45.5462L144.189 45.1434L144.29 44.7405L143.988 44.8412V44.4384L143.585 44.1363L143.383 44.237L142.981 44.0355L142.88 43.8341L142.779 43.532L142.88 43.2299L142.678 43.1291H142.175L141.973 43.0284L141.873 42.4242L140.866 39.5036L140.362 39.3021L140.06 39L139.657 39.1007L139.456 39.4028L139.053 39.6043L138.65 39.8057L138.348 39.705L138.247 39.3021L137.744 39.4028Z" fill="#F8F8F7" stroke="#21202E" stroke-width="0.3" stroke-linecap="round" stroke-linejoin="round"/>
<path fill-rule="evenodd" clip-rule="evenodd" d="M100.786 77.1699L103.907 76.8678V76.6664L103.807 76.3642H104.411L113.676 75.4578L113.877 75.2564L114.985 74.6522L115.086 74.35L115.589 74.1486V73.9472L115.791 73.7458V73.4436L116.495 73.0408L117.2 72.1344V72.0337H116.898L116.395 71.7315L115.992 71.228L115.891 71.0266L115.488 70.6237L115.589 70.2209L115.488 69.9187L115.287 69.6166L114.884 69.5159L114.683 69.0123L114.28 69.3145L114.179 69.5159H113.877L113.776 69.6166L113.575 69.4152H113.172L112.971 69.7173L112.769 69.6166L112.467 69.3145L111.964 69.4152L111.662 69.3145L111.561 69.1131L111.36 68.7102H111.158L110.957 68.5088L110.755 68.7102L110.453 68.5088L110.151 68.8109L110.252 69.0123V69.2138L110.453 69.3145V69.6166H110.151L109.648 69.9187L109.446 69.818L109.043 69.9187L109.144 70.4223L108.943 70.7244H108.741V71.1273L108.54 71.228H108.338L108.238 71.6308V72.0337L107.936 72.2351L107.634 72.0337L107.331 71.933L107.231 71.7315L107.029 72.0337L106.828 72.4365L106.727 72.7386L106.526 72.6379L106.224 72.4365L105.922 72.5372L105.821 72.6379L105.619 73.0408L105.418 72.8394L104.914 72.6379L104.612 72.8394L104.512 72.6379V72.9401L104.411 73.0408L104.31 72.8394L104.109 72.9401L103.807 72.8394V73.2422H103.505L103.404 73.4436L103.303 73.7458L103.505 73.9472V74.1486L102.699 74.4507L102.598 74.7529L102.8 75.055L102.9 75.2564L102.699 75.3571H102.598L101.893 75.055H101.591L101.39 75.2564L101.188 75.5586L101.289 75.6593L101.188 75.76H101.39L101.289 76.1628L101.39 76.3642L101.188 76.9685L100.886 76.7671V76.8678L100.786 77.1699Z" fill="#F8F8F7" stroke="#21202E" stroke-width="0.3" stroke-linecap="round" stroke-linejoin="round"/>
<path fill-rule="evenodd" clip-rule="evenodd" d="M130.594 66.8975L131.802 66.5953L132.004 66.4946V66.3939L131.903 66.1925L131.601 66.2932L131.701 66.0918V65.8903L131.903 65.7896L131.701 65.6889L131.5 65.5882L131.198 65.3868V65.1854L130.795 64.9839V64.5811L130.191 64.0775V63.7754L130.09 63.6747V63.4733L130.292 63.2719L130.392 62.9697H129.989L129.788 63.1711L129.687 63.4733L130.594 66.8975Z" fill="#F8F8F7" stroke="#21202E" stroke-width="0.3" stroke-linecap="round" stroke-linejoin="round"/>
<path fill-rule="evenodd" clip-rule="evenodd" d="M133.111 55.9199L133.413 57.9342L133.615 58.1356L133.212 58.6391L133.413 58.7398H133.715L134.219 58.1356L134.521 58.0349L134.723 57.7327H134.924L135.427 57.5313L135.931 57.4306L135.83 57.2292L136.132 57.3299L136.334 57.2292L136.636 57.1285L136.837 57.0278H137.039V56.6249L136.636 55.1143L134.521 55.7185L134.42 55.6178L133.111 55.9199Z" fill="#F8F8F7" stroke="#21202E" stroke-width="0.3" stroke-linecap="round" stroke-linejoin="round"/>
<path fill-rule="evenodd" clip-rule="evenodd" d="M92.5274 49.1727L92.4267 49.4749H92.2253L92.326 50.482V51.0863L91.5204 51.5898L91.4197 51.8919L91.2183 52.1941V52.4962L91.5204 52.5969L91.7218 52.8991L91.6211 53.3019L91.5204 53.604L91.6211 53.8054L91.5204 53.9062L91.6211 54.1076L91.5204 54.7118L92.0239 55.1147H92.4267L92.7288 55.4168L93.1316 55.5175L93.5344 55.9204L93.8366 56.3232L94.1387 56.5246H94.5415L94.9443 56.9275L95.045 57.2296V58.0353H95.1457L95.2464 58.3374L95.5485 58.5389L95.3471 58.841L95.4478 59.546L95.7499 60.1502H96.3542L96.5556 60.6538L102.598 60.0495L102.497 59.6467L102.598 59.4453V59.1431L102.396 59.0424L102.296 58.6396L102.195 58.0353V57.6325L102.296 57.3303V57.0282L102.497 56.6254L102.296 56.4239L102.396 55.8197L102.497 55.5175L102.799 55.3161L102.598 55.014V54.4097L102.9 53.9062L102.799 53.604L103.101 53.3019L103.202 52.7983L103.303 52.3955L103.504 52.0934H103.303L103.202 52.3955L103.001 52.6976H102.9V52.9998L102.698 53.2012L102.799 53.4026L102.698 53.5033H102.598L102.296 53.604L102.094 54.0069L101.893 54.2083L101.691 54.5104L101.49 54.4097V54.1076L101.691 53.604L101.893 53.3019L102.195 53.1005V52.8991L101.893 52.6976L102.094 52.0934H101.994L101.691 52.1941H101.591L101.792 51.7912L101.591 51.2877L101.289 51.0863H100.987V50.7841L100.684 50.6834L99.9795 50.5827L99.5767 50.6834L99.1739 50.482L97.8647 50.1799L96.757 49.9784L96.4549 49.5756L96.1527 49.4749L95.4478 49.2735L95.045 49.4749V49.2735L95.2464 48.5685L95.045 48.4678L94.5415 48.7699L94.2394 48.8706L93.5344 49.2735L92.9302 49.3742L92.5274 49.1727Z" fill="#F8F8F7" stroke="#21202E" stroke-width="0.3" stroke-linecap="round" stroke-linejoin="round"/>
<path fill-rule="evenodd" clip-rule="evenodd" d="M116.495 79.2853L115.79 79.5874L115.589 79.8896L115.287 80.4938L115.79 80.6953L115.891 80.796L116.193 80.9974L116.596 80.8967V81.1988L116.898 81.4002L116.999 81.7024L117.099 81.8031L117.402 82.0045L117.502 82.3066H117.704L117.804 82.5081L118.308 82.7095L118.61 83.213H118.912L119.214 83.5152V83.7166L119.516 83.8173V84.0187L119.718 84.1194V84.3208H120.02L120.523 84.623V84.8244L120.725 85.1265L120.826 85.5294L120.926 85.7308H121.228L121.329 85.9322L121.631 86.3351V86.7379L121.833 87.04L121.933 86.9393H122.135H122.336L122.437 86.6372V86.3351L122.638 86.5365L122.336 86.0329L122.135 85.6301L122.235 85.5294L122.537 86.0329L122.739 86.1336L122.638 85.7308L122.84 85.9322L122.94 86.2344L123.142 86.0329L123.041 85.7308L122.84 85.6301L122.638 85.5294L123.041 85.4287L123.343 85.5294L123.545 85.328V85.1265H123.847L124.149 84.9251L124.35 84.7237L124.149 84.5223V84.3208H124.35L124.451 84.5223L124.652 84.3208L124.854 84.1194V83.7166L125.055 83.6159L125.256 83.7166L125.458 83.4145L125.357 83.213L125.76 83.0116L125.458 82.9109V82.6088L125.659 82.3066V82.8102L125.961 81.9038L126.264 81.4002L126.767 80.8967L123.847 78.7817L121.228 79.1846L121.128 78.7817L120.725 78.4796L120.523 78.681L120.423 78.3789L117.402 78.7817L116.999 78.9832L116.697 79.0839L116.596 79.2853H116.495Z" fill="#F8F8F7" stroke="#21202E" stroke-width="0.3" stroke-linecap="round" stroke-linejoin="round"/>
<path fill-rule="evenodd" clip-rule="evenodd" d="M40.0611 60.0496L40.8667 55.014L41.0681 54.6112V54.3091L41.2695 54.1077L41.0681 53.9062L40.6653 53.8055L40.766 53.2013L41.2695 52.597L41.6723 52.1941L41.773 51.892L42.1758 51.2877L42.2765 51.0863L42.7801 50.4821L42.6794 49.9785L42.0751 49.475V49.1728L37.8456 48.4678L37.5435 48.6693L36.6371 48.4678L36.335 48.5686L35.4287 48.6693L34.9252 48.77L34.4216 48.6693L33.7167 48.77L33.616 48.6693L33.2132 48.77L33.1125 48.4678L32.609 48.2664L32.0048 48.1657L30.9977 48.4678L30.6956 48.2664L29.9907 48.065V47.8636L30.0914 47.1586L29.89 46.655L29.5879 46.3529L29.2858 46.4536H28.9836L28.8829 46.1515L28.4801 46.2522L28.2787 46.1515L28.178 46.3529L27.8759 46.0508V46.5543L27.6745 46.7558V47.1586L27.7752 47.36L27.5738 47.5614L27.6745 47.9643H27.4731L26.8689 49.6764L26.7682 49.9785L26.8689 50.1799L26.7682 50.3813L26.6675 50.5828V50.7842L26.466 50.9856L26.2646 51.892L26.0632 52.3956L26.1639 52.597L25.9625 52.6977L25.6604 53.2013H25.8618V53.5034L25.6604 53.4027L25.459 53.7048L25.3583 53.5034L25.0562 54.2084L24.7541 54.8126L24.8548 55.2155L24.7541 55.8197L24.6534 56.424V56.8268L24.8548 57.2297L33.7167 59.0425L40.0611 60.0496Z" fill="#F8F8F7" stroke="#21202E" stroke-width="0.3" stroke-linecap="round" stroke-linejoin="round"/>
<path fill-rule="evenodd" clip-rule="evenodd" d="M69.7106 76.7726C69.7106 76.7726 75.9172 76.9412 79.0205 76.9247C82.2615 76.9076 88.7436 76.6719 88.7436 76.6719L88.8443 78.1825L89.3478 81.1032L89.5492 86.1387L88.945 86.038L88.6429 85.8366L88.3408 85.5344L88.0387 85.4337L87.7365 85.333L87.3337 85.5344L86.9309 85.4337L86.3267 85.6351H86.1253L85.6218 85.7359L85.5211 86.038H85.3197L85.0175 85.9373L84.7154 85.8366L84.514 85.6351L84.2119 85.7359L83.7084 85.4337L83.3056 86.1387L83.1042 85.6351L82.7014 85.8366L82.3992 85.6351H82.1978L82.0971 85.333L81.4929 85.8366L81.2915 85.4337L80.9894 85.333V85.0309H80.3852L80.0831 85.2323L79.7809 84.9302L79.4788 85.0309L78.8746 84.8295H78.3711V84.5273L77.9683 84.1245L77.8676 84.3259H77.6662L77.3641 84.4266L77.0619 84.1245L76.7598 83.8223H76.4577V78.384L69.7106 78.2832V76.7726Z" fill="#F8F8F7" stroke="#21202E" stroke-width="0.3" stroke-linecap="round" stroke-linejoin="round"/>
<path fill-rule="evenodd" clip-rule="evenodd" d="M109.345 61.4588L110.251 68.71L110.453 68.5086L110.755 68.71L110.956 68.5086L111.158 68.71H111.359L111.661 69.3143L111.963 69.415L112.467 69.3143L112.769 69.6164L112.97 69.7171L113.172 69.415H113.575L113.776 69.6164L113.877 69.5157H114.179L114.28 69.3143L114.682 69.0121L114.884 69.5157L115.287 69.6164L115.488 69.9185L115.689 69.8178L116.092 69.6164V69.3143L116.294 69.2135L116.193 68.71V68.5086L116.294 68.2064L116.495 68.005L116.697 68.1057V68.3071H116.797L116.999 68.1057V67.9043L116.898 67.8036L116.999 67.6022L117.099 67.1993L117.301 67.0986V66.8972L117.603 66.6958L117.804 66.8972L118.207 66.4943V66.1922L118.711 65.8901V65.4872L118.811 64.883V64.3794L118.912 63.9766L118.811 63.6744L118.912 63.3723L118.61 63.1709L118.912 62.9695L118.308 59.2432L116.697 60.2503L115.992 61.056L115.689 61.1567H115.287L114.884 61.3581L114.582 61.4588L114.481 61.6602L113.877 61.5595H113.675L113.474 61.6602L113.172 61.5595L113.776 61.2574H113.575L113.373 61.3581L112.87 61.1567L112.366 61.056L112.165 60.9552L109.345 61.4588Z" fill="#F8F8F7" stroke="#21202E" stroke-width="0.3" stroke-linecap="round" stroke-linejoin="round"/>
<path fill-rule="evenodd" clip-rule="evenodd" d="M118.308 74.6523L130.997 72.3359L131.4 72.7388L131.802 73.343L131.299 72.9402L131.4 73.2423L130.896 72.9402L130.695 73.0409L131.198 73.343L130.997 73.4438L130.594 73.343L130.896 73.6452L130.292 73.343V73.5445L130.594 73.7459L130.292 73.9473H129.889L129.788 73.5445V73.1416H129.587V73.7459L129.788 74.048V74.3502L130.292 74.2494L130.493 74.048L130.695 74.2494L130.997 74.1487L131.198 73.8466L131.4 74.1487L131.299 74.4509L131.5 74.5516L131.299 74.753H131.601L131.702 74.3502L131.601 74.048H131.903L132.004 73.8466L132.205 74.2494V74.5516V74.8537L132.004 74.753L131.903 74.8537L131.702 75.458L131.5 75.6594H131.097L130.896 75.458L130.695 75.6594L130.594 75.458L130.795 75.2566L130.191 75.3573L130.393 75.6594H129.788L129.385 75.5587L129.587 75.8608L130.191 75.9615H130.795V76.163L130.393 76.3644L130.695 76.4651L130.393 76.8679H130.09L129.486 76.5658L129.889 77.0693L130.292 77.1701H130.493L130.695 76.8679L130.896 77.0693L131.4 76.7672L130.997 77.5729L130.695 77.3715L130.393 77.5729L129.889 77.875L129.587 77.6736V77.9757L129.285 78.3786L129.184 77.9757H128.983L129.083 78.1772L128.983 78.2779L129.184 78.4793L128.781 78.7814L128.479 79.285L128.278 79.7885V80.0907L128.076 79.6878V80.5942H127.371H127.271L127.069 80.7957L126.767 80.8964L123.847 78.7814L121.228 79.1843L121.128 78.7814L120.725 78.4793L120.524 78.6807L120.423 78.3786L117.402 78.7814L116.697 79.0836L116.596 79.285H116.495L115.79 79.5871L112.971 79.99V79.285L113.071 79.1843L113.474 79.285L113.575 78.6807L114.179 78.1772H114.683L115.388 77.3715H115.79L115.891 76.8679H116.093L116.193 76.5658L116.495 76.4651L116.596 76.6665H116.798L116.999 76.163L117.502 76.0622L117.704 76.163L118.006 75.458L118.207 75.2566H118.308V74.6523Z" fill="#F8F8F7" stroke="#21202E" stroke-width="0.3" stroke-linecap="round" stroke-linejoin="round"/>
<path fill-rule="evenodd" clip-rule="evenodd" d="M40.1375 60.1034C42.2268 60.421 46.4053 60.9555 46.4053 60.9555L44.3912 76.9685L44.2905 77.17L44.0891 77.5728H43.787L43.6863 77.17L43.4849 77.2707L43.1828 77.0692L42.78 77.2707L42.6792 77.6735L42.78 77.9756L42.6792 78.1771L42.78 78.6806L42.6792 78.9827L42.78 79.4863V79.8891L42.5785 79.9899V80.3927L32.2061 67.1996L33.7166 59.042C33.7166 59.042 38.0308 59.7832 40.1375 60.1034Z" fill="#F8F8F7" stroke="#21202E" stroke-width="0.3" stroke-linecap="round" stroke-linejoin="round"/>
<path fill-rule="evenodd" clip-rule="evenodd" d="M130.996 58.4375L132.809 59.0418L132.91 59.1425L132.809 59.5453V59.8475L132.608 59.9482L132.507 60.1496L132.406 60.4517L132.507 60.6531L132.91 60.7539H133.111L133.212 61.2574L133.111 61.761V62.0631V62.3652L133.01 62.4659L133.111 62.6674L133.01 63.0702L132.91 63.1709H132.708L132.91 63.473H132.708V63.6745L132.809 63.7752H132.608L132.507 63.9766L132.305 64.0773L132.507 64.178L132.305 64.5809V64.6816L132.205 64.7823V64.9837L132.003 65.1851V64.9837V64.4802H131.802H131.6L131.399 64.5809L131.298 64.3794H130.996L130.896 64.178H130.694L130.392 63.9766V63.6745L130.291 63.5738L130.392 63.2716V63.0702H130.493L130.694 62.7681L130.896 62.5666V62.3652L131.6 61.761V61.5595L130.996 61.1567H130.795L130.694 60.7539L130.392 60.8546L130.291 60.4517L130.392 60.1496L130.493 59.9482L130.291 59.7467V59.5453L130.493 59.3439L130.694 58.9411V58.7396L130.996 58.4375Z" fill="#F8F8F7" stroke="#21202E" stroke-width="0.3" stroke-linecap="round" stroke-linejoin="round"/>
<path fill-rule="evenodd" clip-rule="evenodd" d="M89.4022 66.4912C88.195 66.5598 85.7804 66.5963 85.7804 66.5963V66.7977L85.9818 66.8985L86.1832 67.402L86.4853 67.6034L86.6867 67.9056V68.107L86.8881 68.3084L87.3917 68.6105L87.5931 68.5098L87.7945 68.6105L87.8952 68.9127L87.6938 69.0134L87.5931 69.2148L87.3917 69.5169L87.5931 69.7184L87.8952 69.9198V70.1212L88.0966 70.4233H88.3987L88.6001 70.5241L88.8015 76.6674L88.9022 78.0774L99.0733 77.3724L99.3754 77.6745V77.8759L98.8719 78.5809L98.7712 78.6816V78.7823V78.8831L100.181 78.6816L100.282 78.3795L100.483 78.2788L100.282 77.9767H100.483L100.382 77.6745H100.584L100.483 77.2717V77.0703L100.685 77.2717L100.785 77.171L100.886 76.8688V76.7681L101.188 76.9695L101.289 76.6674L101.389 76.3653L101.289 76.1639L101.389 75.761H101.188L100.987 75.5596V75.761L100.685 75.6603V75.4589L100.382 75.056V74.9553L100.483 74.6532V74.5525L100.282 74.3511V73.9482L99.8789 73.7468L99.6775 73.4447H99.5768L99.174 73.2432L98.9726 73.1425L98.167 72.5383V72.1354L98.4691 71.3297V71.0276L98.5698 70.8262L98.2677 70.5241H97.8648L97.5627 70.8262L97.3613 70.6248L97.1599 70.1212V69.8191L96.9585 69.5169L96.3543 69.2148L96.2536 69.0134L95.6494 68.5098L95.5487 68.3084L95.448 68.107L95.3473 67.9056L95.1458 67.3013L95.2466 66.8985L95.3473 66.697L94.6423 66.0928C94.6423 66.0928 91.1489 66.392 89.4022 66.4912Z" fill="#F8F8F7" stroke="#21202E" stroke-width="0.3" stroke-linecap="round" stroke-linejoin="round"/>
<path fill-rule="evenodd" clip-rule="evenodd" d="M104.008 81.0986L104.109 81.3001L104.31 81.4008V88.3498V90.0619L104.914 94.0903L104.813 94.3925L104.411 94.191L104.31 94.2918H104.008L103.605 94.0903L103.202 94.3925L102.9 94.5939L102.598 94.3925V94.5939L102.497 94.896L101.994 94.9967V94.7953L101.792 94.2918L101.49 93.9896L101.39 93.6875L101.49 92.9825V92.7811L96.9586 93.1839V92.7811L96.8578 92.3783H97.0593L97.16 92.1768L97.0593 91.774L97.2607 91.4719L97.4621 90.7669L98.0663 90.2633L97.9656 89.8605H98.0663L98.2677 89.2562L97.8649 88.9541V88.6519L97.6635 88.3498L97.8649 88.2491L97.7642 88.1484L97.6635 87.947L97.8649 87.6448L97.5628 87.4434V87.1413L97.7642 86.9399L97.5628 86.6377V86.1342L97.3614 85.9328L97.5628 85.7313L97.3614 85.5299L97.6635 85.1271L97.5628 84.6235L97.9656 84.4221L98.0663 84.3214L97.8649 84.12L98.2677 83.7171V83.5157L98.5698 83.3143V82.4079H98.8719V82.1057L99.174 81.9043V81.6022L104.008 81.0986Z" fill="#F8F8F7" stroke="#21202E" stroke-width="0.3" stroke-linecap="round" stroke-linejoin="round"/>
<path fill-rule="evenodd" clip-rule="evenodd" d="M95.0453 58.0349L84.0686 58.6391L83.9679 53.7043L83.7665 53.4022L83.3637 53.3015L83.0615 52.6972L83.3637 52.4958L83.5651 52.1936L83.6658 51.8915L83.5651 50.8844L83.2629 50.4816L83.1622 50.0787L83.0615 49.3737V49.1723L82.9608 48.6688V47.8631L82.8601 47.2588L82.2559 45.9496V44.8417L82.3566 44.5396L82.0545 43.7339L86.1834 43.5325V42.5254L86.5862 42.6261L86.7876 42.9282L86.989 43.5325V43.9353L87.2911 44.2375H87.8953L87.996 44.3382L88.8017 44.4389L88.9024 44.741L89.2045 44.6403H89.6073L89.708 44.4389L90.0101 44.3382H90.6143L90.8157 44.4389H91.2185V44.6403H91.0171L91.1178 44.741H91.5207L91.6214 45.1439L91.8228 45.2446L91.9235 45.3453L92.0242 44.9425H92.427L92.5277 45.2446H92.7291H93.0312L93.1319 45.5467H93.3333L93.434 45.7481L93.9376 45.5467L94.139 45.446L94.7432 45.0432L95.0453 45.446L95.4481 45.3453L96.3544 45.2446L96.6566 45.5467L96.858 45.446H97.2608L96.5559 45.9496L95.4481 46.3524L94.7432 46.9567L93.9376 47.8631L93.1319 48.6688L92.6284 48.9709L92.5277 49.273L92.427 49.4744H92.2256L92.3263 50.4816V51.0858L92.0242 51.2872L91.5207 51.5894L91.42 51.8915L91.2185 52.1936V52.4958L91.5207 52.5965L91.7221 52.8986L91.6214 53.3015L91.5207 53.6036L91.6214 53.805L91.5207 53.9057L91.6214 54.1071L91.5207 54.7114L92.0242 55.1143H92.427L92.7291 55.4164L93.1319 55.5171L93.5347 55.9199L93.8368 56.3228L94.139 56.5242H94.5418L94.9446 56.927L95.0453 57.2292V58.0349Z" fill="#F8F8F7" stroke="#21202E" stroke-width="0.3" stroke-linecap="round" stroke-linejoin="round"/>
<path fill-rule="evenodd" clip-rule="evenodd" d="M105.015 61.8627L109.345 61.2585V61.4599L112.165 60.9563V60.6542L112.567 60.1507V59.4457L112.769 59.0428L113.071 58.9421L112.97 58.5393L113.272 58.3379L113.172 58.1364L113.373 58.0357L113.675 58.3379L113.877 57.1293L113.474 56.6258L113.172 55.6187L112.87 54.813L112.668 54.4101H112.265L111.863 54.7123H111.661L111.359 55.518H111.158L111.057 55.8201H110.755L110.251 55.7194L110.352 54.9137L110.755 54.7123L110.956 54.5108V54.108L111.158 53.9066L111.359 53.7052L111.258 52.5973L111.057 52.1945L110.755 51.9931L110.856 51.6909L111.158 51.7917L110.956 51.4895H110.755V51.0867H110.352L110.05 50.986L109.748 50.8853H109.144L109.043 50.5831L108.741 50.4824H108.439L107.834 50.281L107.532 50.4824L107.23 50.7845V51.0867L107.331 51.1874L107.734 51.2881L107.633 51.3888L107.029 51.5902L106.727 51.7917L106.827 52.2952V52.8995L106.626 53.3023L106.425 53.2016L106.324 53.0002V52.4966V52.0938L106.022 52.698L105.921 52.8995H105.72L105.418 53.1009L105.518 53.403L105.115 53.6044L105.317 53.9066V54.6116L105.115 55.0144L104.813 55.4172L105.115 55.8201V56.1222L104.914 56.5251L105.115 57.0286L105.418 57.4315L105.518 57.5322H105.72L105.619 57.8343L105.82 58.3379L105.921 58.64V59.9492L105.619 60.6542L105.418 61.1578L105.317 61.6613L105.015 61.8627ZM102.195 52.8995L102.799 51.4895L103.101 50.986L103.202 50.3817L103.403 50.6838V50.986L103.706 50.5831L104.108 50.3817L104.209 50.7845L103.907 51.0867L104.008 51.1874L104.511 50.5831L104.713 50.281L105.115 50.0796L105.418 50.1803L105.921 49.9789L106.122 49.6767L106.827 49.576L107.432 49.7774L107.734 50.0796L107.935 49.4753H108.439L109.244 49.576L109.546 49.4753H109.848H110.251V49.2739L110.05 49.0725L109.848 49.3746H109.446L109.144 49.1732L108.942 49.0725L108.741 48.9717V48.7703L108.841 48.4682L108.741 48.0654L108.439 48.2668L108.036 48.4682H107.834L107.734 48.3675L107.432 48.4682L106.928 48.3675V47.6625L106.525 47.7632L105.921 48.1661L105.216 48.0654L104.612 48.2668L104.008 48.7703L103.806 48.9717L103.504 48.871L103.303 49.0725L103.001 48.7703L102.497 49.0725L102.195 48.9717L101.591 48.1661L100.987 48.0654L100.584 48.1661L99.9795 48.5689L99.8788 47.8639L100.282 47.3604L100.785 46.8568L100.684 46.7561L101.289 46.5547H100.987L100.382 46.6554L99.7781 47.0582L99.5767 47.3604L99.2746 47.4611L99.0732 47.7632L98.8718 48.0654H98.5697L98.1668 48.4682L97.2605 48.6696L97.0591 48.9717L96.757 49.1732L96.0521 49.4753L96.4549 49.576L96.757 49.9789L99.1739 50.4824L99.5767 50.6838L100.08 50.5831L100.684 50.6838L100.987 50.7845V51.0867H101.289L101.591 51.2881L101.792 51.7917L101.591 52.1945H101.691L101.994 52.0938H102.094L101.893 52.6981L102.195 52.8995Z" fill="#F8F8F7" stroke="#21202E" stroke-width="0.3" stroke-linecap="round" stroke-linejoin="round"/>
<path fill-rule="evenodd" clip-rule="evenodd" d="M133.01 55.9195H133.111L134.42 55.6174L134.521 55.7181L136.636 55.1139V55.2146L137.441 54.9124L137.542 55.2146H137.643H137.743V55.5167L138.045 55.6174L138.146 55.3153H138.247V55.5167L138.146 55.7181L138.247 56.121L138.348 56.2217L138.448 56.0202L138.549 55.9195L138.65 56.0202L138.75 55.8188V55.6174H138.851L139.052 55.416V55.2146H139.254L139.355 55.416V55.7181H139.556L139.657 55.5167L139.757 55.416L140.06 55.3153L140.664 55.0131V54.711L140.563 54.6103L140.462 54.4089L140.261 54.1067H140.16L140.261 54.3082C140.261 54.3082 140.493 54.5279 140.559 54.6378C140.594 54.6958 140.563 54.8117 140.563 54.8117L140.261 54.9124L140.16 55.0131L140.06 55.1139H139.858H139.455L139.355 54.9124V54.6103L139.153 54.711L138.851 54.6103L138.952 54.3082L138.549 53.9053L138.348 54.006L138.247 54.1067L138.045 54.006L137.945 53.9053V53.7039L138.045 53.6032V53.5025L138.247 53.4018L138.146 53.3011V53.0996L138.549 52.9989L138.65 52.7975L138.448 52.8982L138.247 52.7975L138.146 52.6968V52.4954H137.945L138.045 52.2939H137.844L137.643 52.3947C137.643 52.3947 137.575 52.5289 137.542 52.5961H137.441L137.24 52.9989L136.938 53.0996L134.823 53.6032L133.111 53.9053L133.01 55.9195ZM139.254 56.2217V56.4231L139.455 56.2217L139.858 56.121L139.556 55.9195L139.455 56.121L139.254 56.2217ZM140.563 56.121L140.664 56.2217H140.865L140.966 56.121L140.865 55.9195L140.764 56.121H140.563ZM138.045 55.8188L137.945 56.0202L138.045 56.3224L138.146 56.2217L138.045 55.8188Z" fill="#F8F8F7" stroke="#21202E" stroke-width="0.3" stroke-linecap="round" stroke-linejoin="round"/>
<path fill-rule="evenodd" clip-rule="evenodd" d="M90.8159 87.8452L97.5631 87.4424L97.8652 87.6438L97.6638 87.9459L97.7645 88.1474L97.8652 88.2481L97.6638 88.3488L97.8652 88.6509V88.953L98.268 89.2552L98.0666 89.8594H97.9659L98.0666 90.2623L97.4624 90.7658L97.261 91.4708L97.0596 91.773L97.1603 92.1758L97.0596 92.3772H96.8581L96.9588 92.7801V93.1829L101.491 92.7801V92.9815L101.39 93.6865L101.491 93.9886L101.793 94.2907L101.994 94.895V94.9957H101.692L101.188 94.895L100.886 94.5929H100.483L99.98 95.1971L100.081 95.4993L100.483 95.6L100.886 95.7007L101.491 95.2978H101.893L101.793 95.4993L101.491 95.6L101.591 95.8014H101.793L101.994 96.0028L102.195 95.8014L102.397 95.3985L102.598 95.8014L102.699 96.0028H102.397L102.195 96.4057L101.893 96.3049L101.994 96.6071L101.793 96.7078L102.498 97.2113L103.303 97.4128L103.706 97.9163L103.404 98.2184L103.102 97.9163L103.001 98.017L102.699 97.7149L102.296 97.6142L102.195 97.4128L101.893 97.5135L101.591 97.1106L100.987 96.9092H100.685L100.786 97.1106L101.088 97.312V97.6142V97.9163L100.886 98.2184L100.685 98.017V97.8156L100.282 97.6142L99.98 97.7149L99.7786 97.8156L99.6779 98.2184L98.9729 98.1177H98.6708L98.1673 98.017V97.8156L98.5701 97.9163L98.4694 97.7149L98.1673 97.4128L98.268 97.1106L98.1673 97.0099L97.9659 97.312L97.5631 97.2113L97.4624 97.1106L97.3617 96.9092L97.261 97.0099L97.1603 96.7078L96.6567 96.8085V96.5064H96.3546L95.9518 96.7078L95.7504 96.8085L96.0525 97.1106L95.6497 97.4128H94.6427L93.7363 96.9092L93.1321 96.8085L92.7293 96.9092L91.9237 97.1106H91.7223L91.6215 96.9092L91.9237 96.8085V96.5064V96.3049V96.1035L92.0244 95.7007L91.823 95.2978L91.9237 95.0964V94.7943L92.1251 94.3914L92.2258 94.0893V93.485L92.3265 93.3843L92.2258 93.2836V92.9815L91.9237 92.6793V92.3772L91.7223 92.1758V92.0751L91.5208 91.8737V91.4708L91.2187 91.068L90.9166 90.7658L90.8159 87.8452Z" fill="#F8F8F7" stroke="#21202E" stroke-width="0.3" stroke-linecap="round" stroke-linejoin="round"/>
<path fill-rule="evenodd" clip-rule="evenodd" d="M103.504 62.1652L103.806 62.3666H104.108L105.015 61.8631L109.345 61.2588V61.4602L110.251 68.7114L110.151 68.8121L110.251 69.0135V69.2149L110.453 69.3157V69.6178H110.151L109.647 69.9199L109.446 69.8192L109.043 69.9199L109.144 70.4235L108.942 70.7256H108.741V71.1285L108.539 71.2292H108.338L108.237 71.632V72.0349L107.935 72.2363L107.633 72.0349L107.331 71.9341L107.23 71.7327L107.029 72.0349L106.928 72.2363L106.827 72.4377L106.727 72.7398L106.525 72.6391L106.223 72.4377L105.921 72.5384L105.82 72.6391L105.619 73.042L105.418 72.8405L104.914 72.6391L104.612 72.8405L104.511 72.6391V72.9413L104.411 73.042L104.31 72.8405L104.108 72.9413L103.806 72.8405V73.042V73.2434H103.504L103.404 72.9413L103.504 72.8405V72.4377L103.706 72.2363L103.504 72.0349L103.605 71.8334L103.806 71.7327L104.008 71.3299L104.209 71.1285V70.8263L104.411 70.5242V70.3228L104.31 70.0206V69.8192L104.108 69.5171L103.907 69.3157L104.108 69.2149L104.008 68.9128L104.209 68.7114L103.504 62.1652Z" fill="#F8F8F7" stroke="#21202E" stroke-width="0.3" stroke-linecap="round" stroke-linejoin="round"/>
<path fill-rule="evenodd" clip-rule="evenodd" d="M112.971 91.4715L106.727 92.1764L106.626 92.68L106.928 92.9821L107.23 93.0828V93.4857L107.331 93.6871H107.533L107.331 94.0899L107.432 94.1906L107.935 93.5864L107.835 93.2842L108.137 93.4857L108.237 93.2842H108.439L108.338 93.4857L108.64 93.5864L108.439 93.6871L109.345 93.5864L109.547 93.2842H109.748L110.252 93.1835L110.554 93.4857L110.05 93.5864L110.856 93.7878L111.46 94.0899L111.158 93.7878L111.46 93.5864L111.561 93.7878L111.863 93.4857L111.964 93.6871L111.661 93.9892L111.863 94.0899H112.165L112.366 94.2914L112.165 94.3921L111.863 94.2914L112.366 94.5935L112.668 94.8956V95.1978H112.971L113.373 94.9963L113.776 94.6942L113.877 94.8956L114.582 94.2914H114.985L114.582 94.0899L114.985 93.7878L115.287 93.6871H115.79L116.193 93.8885H116.495L116.898 94.2914L116.999 94.4928L117.402 94.5935L117.502 94.9963L117.704 95.1978L118.006 95.2985L118.207 95.6006L118.509 95.802H119.113L119.315 96.3056L119.617 96.507V96.9098L119.718 97.1113V98.1184L119.516 98.6219L119.718 98.8233L119.617 99.5283L120.02 99.8305L120.121 99.4276L119.818 99.2262L119.919 98.9241L120.322 99.1255V99.4276L120.523 99.1255L120.624 99.3269L120.725 99.5283L120.322 100.133L120.221 100.535L120.523 100.838L120.624 101.14L120.926 101.543L121.128 101.845L121.43 102.147H121.732L121.329 101.744H121.631L122.034 101.643L122.135 101.744L121.933 101.845L122.034 102.55L122.135 102.852L122.336 102.751V102.55L122.739 102.248V102.449L122.537 102.65L122.336 102.952L122.537 103.053L122.638 102.952L122.84 103.355L122.94 103.859L123.242 104.262L124.048 104.463L124.35 104.665V104.866L124.451 104.967L124.753 105.269L124.954 105.672L125.458 105.772L125.659 105.974L125.458 106.175L124.954 105.873V106.175L125.156 106.377L125.659 106.276L125.76 106.075L126.163 106.175L126.465 105.772H126.767L127.069 105.269L126.868 105.067L127.069 104.362L127.17 103.758V103.255V102.65L127.069 102.55V101.744L126.968 101.14L126.767 100.938V100.737L126.364 100.334H126.163L126.062 100.133L126.364 100.233L126.163 99.8305L126.062 99.7297L125.659 99.0248L125.256 98.4205L124.753 97.6148L124.249 96.9098L124.048 96.2049L124.249 96.1042L124.35 96.507H124.652L123.746 95.3992L122.84 94.1906L122.235 92.7807L122.135 92.5793L121.933 92.1764L121.832 91.6729L121.53 91.4715V91.1693H121.732V90.9679H120.926L120.423 90.8672L120.221 91.0686V91.4715L120.423 91.5722L120.322 92.1764H120.02L119.818 91.8743V91.6729L119.214 91.7736L113.273 92.1764L113.172 91.7736L112.971 91.4715Z" fill="#F8F8F7" stroke="#21202E" stroke-width="0.3" stroke-linecap="round" stroke-linejoin="round"/>
<path fill-rule="evenodd" clip-rule="evenodd" d="M65.136 65.4871C62.6879 65.3743 56.8783 64.8828 56.8783 64.8828L55.972 76.0617C55.972 76.0617 59.8012 76.3906 62.0683 76.5047C65.1385 76.6591 71.9839 76.8674 71.9839 76.8674L72.1853 65.5878C72.1853 65.5878 67.7903 65.6093 65.136 65.4871Z" fill="#F8F8F7" stroke="#21202E" stroke-width="0.3" stroke-linecap="round" stroke-linejoin="round"/>
<path fill-rule="evenodd" clip-rule="evenodd" d="M89.6071 86.1329L89.4057 81.0974L88.9022 78.1768V78.0761L99.0733 77.3711L99.3754 77.6732V77.8746L98.8719 78.5796L98.7712 78.6803V78.8818L100.181 78.6803L100.382 78.781L100.483 78.8818H100.181V79.0832L100.282 79.1839L99.7782 79.486L99.8789 79.8889V80.0903H99.6775L99.5768 80.4931L99.4761 80.7953L99.6775 81.1981H99.3754L99.174 81.601V81.9031L98.8719 82.1045V82.4066H98.5698V83.313L98.2677 83.5145V83.7159L97.8649 84.1187L98.0663 84.3201L97.9656 84.4209L97.5627 84.6223L97.6635 85.1258L97.3613 85.5287L97.5627 85.7301L97.3613 85.9315L97.5627 86.1329V86.6365L97.7642 86.9386L97.5627 87.14V87.4422L90.7149 87.845V86.3344L90.6142 86.2337H90.1107L90.01 86.3344L89.8086 86.2337L89.6071 86.1329Z" fill="#F8F8F7" stroke="#21202E" stroke-width="0.3" stroke-linecap="round" stroke-linejoin="round"/>
<path fill-rule="evenodd" clip-rule="evenodd" d="M48.8266 75.3971C51.2084 75.6523 55.9721 76.062 55.9721 76.062L54.6629 92.0751L49.8292 91.6722L41.1686 87.3417L41.2693 87.0395L41.4708 86.7374L41.5715 86.6367L41.8736 86.7374H41.9743L42.1757 86.3346V85.9317L41.7729 85.831L41.6722 85.6296L41.7729 85.3274V84.7232H42.075L42.2764 84.3203L42.4778 83.5147V83.3132L42.6792 83.1118L42.7799 82.9104L43.1827 82.709L43.4848 82.4068L42.9813 81.9033L42.8806 81.299L42.5785 80.6947V79.9898L42.7799 79.8891V79.4862L42.6792 78.9827L42.7799 78.6805L42.6792 78.177L42.7799 77.9756L42.6792 77.6734L42.7799 77.2706L43.1827 77.0692L43.4848 77.2706L43.6862 77.1699L43.7869 77.5727H44.089L44.3912 76.9684L44.6933 74.8535C44.6933 74.8535 47.4488 75.2495 48.8266 75.3971Z" fill="#F8F8F7" stroke="#21202E" stroke-width="0.3" stroke-linecap="round" stroke-linejoin="round"/>
<path fill-rule="evenodd" clip-rule="evenodd" d="M104.008 81.0976L104.108 81.299L104.31 81.3997V90.0608L104.914 94.0893H105.317L105.518 94.2907H105.619V93.6864L105.72 93.0821L106.122 93.3843L106.022 93.7871L106.223 93.9885L106.626 94.3914L106.928 94.2907L106.827 94.0893H107.029L107.331 93.6864L107.23 93.485V93.0821L106.928 92.9814L106.626 92.6793L106.727 92.1758L112.97 91.4708L112.87 91.1686L112.567 90.8665L112.668 89.8594L112.265 89.3558V88.8523L112.467 88.6509V88.1473L112.769 87.8452L112.467 87.7445V87.3416L112.165 86.9388L111.762 86.0324L109.949 80.3926L104.008 81.0976Z" fill="#F8F8F7" stroke="#21202E" stroke-width="0.3" stroke-linecap="round" stroke-linejoin="round"/>
<path fill-rule="evenodd" clip-rule="evenodd" d="M41.9741 49.1727V48.8705L42.0748 48.7698V48.5684L41.8734 48.1655L42.9812 41.2165C42.9812 41.2165 37.2762 40.228 34.4237 39.6834C33.5837 39.523 31.9037 39.1016 31.9037 39.1016L31.803 39.303L31.9037 39.8065H32.2059V40.2094L32.1052 40.6122H31.9037L31.803 40.4108L31.7023 40.2094L31.4002 39.8065L31.1988 39.9072L31.4002 40.008L31.6016 40.2094L31.4002 40.3101L31.0981 40.1087L30.796 40.008L30.8967 40.3101L31.4002 40.5115L31.6016 40.3101L31.803 40.6122L31.5009 41.0151L31.6016 41.3172L31.803 41.9215L32.0045 42.0222L31.9037 41.72L31.7023 41.2165L31.803 40.9144H32.0045L32.2059 41.0151V41.4179V41.72L32.4073 41.8208L32.2059 42.1229L31.9037 42.425V42.7272V43.0293L31.803 43.5328L31.6016 43.835L31.4002 43.7343L31.0981 44.0364L30.9974 44.1371L30.6953 44.0364L30.4939 44.1371L30.1918 44.0364L30.3932 43.7343L30.6953 43.4321L30.8967 43.5328L31.0981 43.3314L31.2995 43.6336L31.4002 43.0293L31.1988 42.9286L31.2995 42.5257C31.193 42.5257 31.6016 42.5257 31.6016 42.5257L31.7023 42.2236L30.9974 42.6264L30.796 42.7272L30.3932 43.0293L30.5946 43.2307H30.796L30.5946 43.3314H30.0911L30.1918 43.13L30.5946 42.7272L30.8967 42.425V42.1229H31.0981V42.3243L31.4002 42.0222L31.1988 41.4179V41.72L30.8967 41.4179L30.796 41.5186L30.4939 41.2165H30.1918L29.084 40.8136L28.6812 40.6122L28.4798 40.4108L27.7749 40.008L27.5735 40.5115V41.1158L27.8756 41.5186L27.9763 41.9215L27.8756 42.7272L28.077 43.0293L27.9763 43.6336H28.2784V43.835L28.6812 44.0364L28.1777 44.1371L28.077 44.3385L27.9763 44.2378V44.5399H28.3791L28.5805 44.8421H28.2784L28.1777 45.2449L28.2784 45.5471H27.9763L27.8756 45.3456L27.7749 45.7485H27.9763L28.1777 45.8492H28.5805L28.6812 45.9499H28.9833L29.084 46.252L29.2855 46.3527H29.5876L29.8897 46.6549L30.0911 47.1584L29.9904 47.8634V48.0648L30.6953 48.2663L30.9974 48.4677L31.7023 48.2663L32.0045 48.1655L32.6087 48.2663L33.1122 48.4677L33.2129 48.7698L33.6157 48.6691L33.7164 48.7698L34.4213 48.6691L34.9249 48.7698L35.4284 48.6691L36.3347 48.5684L36.6368 48.4677L37.5432 48.6691L37.8453 48.4677L41.9741 49.1727Z" fill="#F8F8F7" stroke="#21202E" stroke-width="0.3" stroke-linecap="round" stroke-linejoin="round"/>
<path fill-rule="evenodd" clip-rule="evenodd" d="M99.1739 81.6015L112.97 79.9901V79.2852L113.071 79.1845L113.474 79.2852L113.575 78.6809L114.179 78.1773H114.682L115.387 77.3717H115.79L115.891 76.8681H116.092L116.193 76.566L116.495 76.4653L116.596 76.6667H116.797L116.998 76.1631L117.502 76.0624L117.703 76.1631L118.005 75.4582L118.207 75.2567H118.308V74.5518L113.877 75.2567L113.675 75.4582L104.41 76.3646H103.806L103.907 76.6667V76.8681L100.785 77.1702L100.684 77.271L100.483 77.0695V77.271L100.584 77.6738H100.382L100.483 77.9759H100.282L100.483 78.2781L100.282 78.3788L100.181 78.6809L100.382 78.7816L100.483 78.8823H100.181V79.0837L100.282 79.1845L99.7781 79.4866L99.8788 79.8894V80.0909H99.6774L99.5767 80.4937L99.476 80.7958L99.6774 81.1987H99.3753L99.1739 81.6015Z" fill="#F8F8F7" stroke="#21202E" stroke-width="0.3" stroke-linecap="round" stroke-linejoin="round"/>
<path fill-rule="evenodd" clip-rule="evenodd" d="M118.308 59.243L118.912 62.9693L119.415 65.4871L129.687 63.4728L129.788 63.1707L129.989 62.9693H130.493L130.594 62.7679L130.896 62.5664V62.365L131.601 61.7608V61.5593L130.996 61.1565H130.795L130.694 60.7536L130.392 60.8544L130.291 60.4515L130.392 60.1494L130.493 59.948L130.291 59.7465V59.5451L130.493 59.3437L130.694 58.9409V58.7394L130.996 58.4373L130.795 58.2359H130.493H130.191L129.989 57.9337V57.7323V57.4302L129.687 57.2288L129.486 57.3295L129.385 57.1281L129.083 57.0273L119.919 58.9409L119.818 58.2359L118.308 59.243Z" fill="#F8F8F7" stroke="#21202E" stroke-width="0.3" stroke-linecap="round" stroke-linejoin="round"/>
<path fill-rule="evenodd" clip-rule="evenodd" d="M119.818 58.2374L119.919 58.9423L129.083 57.0288L129.385 57.1295L129.486 57.331L129.687 57.2302L129.99 57.4317V57.9352L130.191 58.2374H130.795L130.997 58.4388L132.809 59.043V58.9423L132.709 58.6402L132.507 58.4388V58.1366H132.608L132.709 58.3381L132.809 58.5395L132.91 58.6402L133.011 59.4459L133.313 59.1438L133.413 58.9423L133.212 58.6402L133.615 58.1366L133.413 57.9352L133.111 55.921H133.011L133.111 53.9068L133.011 53.8061L132.608 51.9933V51.7919L132.406 51.5904L132.306 51.6911L132.205 51.7919V51.5904V51.1876L132.104 51.0869V50.9862L132.004 50.8855L131.903 50.5833H131.802V50.0798L131.903 49.8784L131.702 49.5762L131.601 49.1734L131.5 48.972V48.6698V48.4684L131.399 48.3677V47.9648L128.58 48.6698H128.278L127.774 49.0727L127.573 49.3748L126.968 50.1805L126.868 50.3819V50.684L126.566 50.9862L125.861 51.6911L125.961 51.7919H126.264H126.465L126.566 51.8926L126.465 52.094L126.264 52.3961H126.163L126.364 52.5975V52.799L126.566 52.8997L126.465 53.0004V53.2018L126.264 53.3025H126.062L125.659 53.8061L125.559 54.0075L125.156 54.2089L125.055 54.3096H124.753H124.451L124.249 54.4103L123.847 54.6118H123.645L123.444 54.4103L122.537 54.5111L122.336 54.6118H121.933L120.725 55.1153L120.826 55.3167V55.5182V55.6189H121.228V55.8203L121.128 56.0217L121.329 56.2231V56.4246L121.128 56.7267L120.926 57.1295L120.523 57.4317L120.322 57.7338L119.818 58.2374ZM132.709 60.0502L132.608 60.1509L132.507 60.453L132.709 60.3523L132.809 60.1509L132.709 60.0502ZM132.91 59.9494V60.0501L133.011 60.1509L133.111 60.0501L133.212 59.9494L133.313 59.8487L133.514 59.9494L133.615 59.8487L134.421 59.4459H134.723V59.2445H134.924L135.327 58.9423L135.83 58.8416L135.931 58.6402L135.83 58.5395L135.73 58.6402L135.629 58.5395L136.032 58.0359L135.931 57.9352L135.528 58.4388L135.428 58.5395L134.924 58.6402H134.723L134.622 58.7409H134.521V58.8416L134.118 58.9423L134.018 59.043L133.816 58.9423V59.1438L133.716 59.043L133.615 59.1438V59.3452L133.413 59.4459L133.313 59.5466H133.111L133.011 59.6473L132.91 59.9494ZM136.032 58.4388V58.5395H136.132L136.435 58.3381L136.535 58.1366H136.737L137.039 57.8345L136.636 58.0359H136.535H136.435L136.233 58.1366L136.132 58.2374L136.032 58.4388Z" fill="#F8F8F7" stroke="#21202E" stroke-width="0.3" stroke-linecap="round" stroke-linejoin="round"/>
<path fill-rule="evenodd" clip-rule="evenodd" d="M102.598 60.0498L96.5558 60.6541L97.0593 61.0569V61.359L97.6635 61.5605L97.7642 62.3662L97.4621 62.6683V63.0711L96.8579 63.474L96.0523 63.6754L95.8509 64.2797L96.2537 64.6825L96.3544 64.9846L95.9516 65.3875V65.7903L95.3473 66.1932L95.448 66.596L95.3473 66.6967L95.2466 66.8981L95.1459 67.301L95.3473 67.9053L95.6495 68.5095L96.2537 69.0131L96.3544 69.2145L96.9586 69.5166L97.16 69.8188V70.1209L97.3614 70.6244L97.5628 70.8259L97.8649 70.5237H98.2678L98.5699 70.8259L98.4692 70.9266V71.3294L98.167 72.1351V72.538L98.9727 73.1422L99.5769 73.4444H99.6776L99.879 73.7465L100.282 73.9479V74.3507L100.483 74.5522V74.6529L100.383 74.955V75.0557L100.685 75.4586V75.66L100.987 75.7607V75.5593L101.188 75.7607L101.289 75.66L101.188 75.5593L101.39 75.2571L101.591 75.0557H101.893L102.598 75.3579H102.699L102.9 75.2571L102.799 75.0557L102.598 74.7536L102.699 74.4515L103.001 74.3507L103.504 74.1493V73.9479L103.303 73.7465L103.404 73.4444L103.504 73.2429L103.404 72.9408L103.504 72.8401V72.4372L103.706 72.2358L103.504 72.0344L103.605 71.833L103.806 71.7323L104.008 71.3294L104.209 71.128V70.8259L104.411 70.5237V70.3223L104.31 70.0202V69.8188L104.109 69.5166L103.907 69.3152L104.109 69.2145L104.008 68.9124L104.209 68.7109L103.504 62.1647L103.202 61.8626L103.102 61.5605V61.2583L102.799 61.0569L102.699 60.7548L102.598 60.6541V60.0498Z" fill="#F8F8F7" stroke="#21202E" stroke-width="0.3" stroke-linecap="round" stroke-linejoin="round"/>
<path fill-rule="evenodd" clip-rule="evenodd" d="M115.79 79.5869L109.949 80.3926L111.762 86.0324L112.165 86.9388L112.467 87.3417V87.7445L112.769 87.8452L112.467 88.1473V88.6509L112.265 88.8523V89.3559L112.668 89.8594L112.568 90.8665L112.87 91.1687L112.97 91.4708L113.172 91.7729L113.273 92.1758L119.214 91.7729L119.818 91.6722V91.8736L120.02 92.1758H120.322L120.422 91.5715L120.221 91.4708V91.068L120.422 90.8665L120.926 90.9672H121.53L121.329 90.6651L121.53 90.2623H121.329L121.43 90.0608L121.329 89.8594V89.7587V89.4566H121.53V89.7587L121.732 89.3559L121.228 89.2552V89.0537L121.732 89.1544L121.631 88.953L121.933 88.6509L121.631 88.7516L121.43 88.5502L121.832 88.4495L121.631 88.248L121.732 88.0466L121.53 87.9459H121.933L122.034 87.7445L121.732 87.6438L121.832 87.4424L122.235 87.5431V87.3417L122.437 87.1402L122.134 87.0395L121.933 86.9388L121.832 87.0395L121.631 86.7374V86.3345L121.329 85.9317L121.228 85.7303H120.926L120.825 85.5289L120.725 85.126L120.523 84.8239V84.6225L120.02 84.3203H119.718V84.1189L119.516 84.0182V83.8168L119.214 83.7161V83.5146L118.912 83.2125H118.61L118.308 82.709L117.804 82.5075L117.703 82.3061H117.502L117.401 82.004L117.099 81.8026L116.999 81.7018L116.898 81.3997L116.596 81.1983V80.8962L116.193 80.9969L115.891 80.7954L115.79 80.6947L115.488 80.594L115.287 80.4933L115.488 80.0905L115.589 79.889L115.79 79.5869Z" fill="#F8F8F7" stroke="#21202E" stroke-width="0.3" stroke-linecap="round" stroke-linejoin="round"/>
<path fill-rule="evenodd" clip-rule="evenodd" d="M33.7166 59.0423L24.8547 57.2295V57.5316L24.6533 57.8338L24.8547 58.0352V58.9416L24.4519 59.7473V59.9487L24.3512 60.3515L24.4519 60.4522L24.1498 60.553L24.0491 60.7544L23.8476 60.8551L23.5455 61.3586V61.8622L23.9483 62.4665L24.0491 62.6679L24.3512 63.2721V64.1785L24.0491 64.6821L24.1498 64.9842L24.2505 65.6892L24.0491 65.7899L24.754 66.9984L25.1568 67.4013V67.8041L25.3582 68.1063L25.5596 68.5091V68.7105L25.2575 68.3077V68.5091L25.6603 69.1134H25.761L26.0631 69.4155L26.2645 68.6098L26.5666 68.5091L26.9695 68.912L27.1709 68.8112L27.3723 68.7105L27.473 68.912L27.6744 69.0127H27.9765L28.2786 69.1134L28.5807 69.4155H28.48L28.1779 69.2141L27.9765 69.3148L27.6744 69.2141L27.1709 69.0127L26.9695 69.1134L26.7681 68.912L26.4659 69.1134V69.2141L26.5666 69.4155V69.6169L26.7681 69.8184V70.2212V70.5233L26.9695 70.624L26.8688 70.7247L26.5666 70.5233L26.2645 70.1205V69.9191V69.6169H26.0631L25.9624 69.8184L26.0631 70.0198L25.9624 70.3219L26.0631 70.7247L25.9624 71.1276L26.2645 71.7319L26.5666 72.034L26.9695 72.1347L27.1709 72.5375L27.0702 72.9404L26.7681 73.1418H26.6673V73.9475L26.7681 74.1489L27.0702 74.4511L27.1709 74.8539L27.3723 74.9546V75.3575L27.5737 75.6596V75.9617L27.9765 76.1631L28.0772 76.566L28.48 76.7674V77.0695L28.2786 77.271L28.3793 77.4724L28.7821 77.6738V77.9759L28.6814 78.3788V78.7816V79.0838L28.48 79.2852L28.7821 79.3859L28.8828 79.688H29.5878L29.6885 79.8894H29.9906L30.192 80.0909L30.4941 80.1916L30.7962 80.0909L31.4004 80.5944L31.6018 81.098L32.3068 81.5008L32.5082 81.6015H33.1124L33.4145 82.0044L33.3138 82.5079L33.5152 82.6086L33.7166 82.5079L34.0187 82.6086L34.4215 83.1122L35.0258 83.8172L35.3279 84.1193L35.5293 84.7236L35.63 85.2271L35.5293 85.63L35.63 85.8314L35.8314 86.0328V86.3349L41.4708 86.7378L41.5715 86.6371L41.8736 86.7378H41.9743L42.075 86.5364L42.1757 86.3349V85.9321L41.7729 85.8314L41.6722 85.63L41.7729 85.3278V84.7236H42.075L42.2764 84.3207L42.3771 83.9179L42.4778 83.515V83.3136L42.6792 83.1122L42.78 82.9108L43.1828 82.7093L43.4849 82.4072L42.9814 81.9037L42.8807 81.2994L42.6792 80.8965L42.5785 80.6951V80.393L32.2061 67.1999L33.7166 59.0423Z" fill="#F8F8F7" stroke="#21202E" stroke-width="0.3" stroke-linecap="round" stroke-linejoin="round"/>
<path fill-rule="evenodd" clip-rule="evenodd" d="M69.5662 78.3271L76.5147 78.4279V83.8662H76.8168L77.421 84.4705L77.7232 84.3698H77.9246L78.0253 84.1684L78.4281 84.5712V84.8734H78.9316L79.5358 85.0748L79.8379 84.9741L80.14 85.2762L80.4422 85.0748H81.0464V85.3769L81.3485 85.4776L81.5499 85.8805L82.1541 85.3769L82.2548 85.679H82.4562L82.7583 85.8805L83.1612 85.679L83.3626 86.1826L83.7654 85.4776L84.2689 85.7798L84.571 85.679L84.7724 85.8805L85.3766 86.0819H85.5781L85.6788 85.7798L86.1823 85.679H86.3837L86.9879 85.4776L87.3907 85.5783L87.7935 85.3769L88.3978 85.5783L88.6999 85.8805L89.002 86.0819L89.6062 86.1826L90.009 86.384L90.1097 86.2833H90.6132L90.7139 86.384V87.8947H90.8146L90.9154 90.8153L91.2175 91.1174L91.5196 91.5203V91.9231L91.721 92.1245V92.2252L91.9224 92.4267V92.7288L92.1238 92.9302L92.2245 93.0309V93.3331L92.3252 93.4338L92.2245 93.5345V94.1388L92.1238 94.4409L91.9224 94.8437V95.1459L91.8217 95.3473L92.0231 95.7501L91.9224 96.153L91.721 96.3544L91.5196 96.7572L91.4189 96.9587L91.6203 97.2608H91.2175L90.3111 97.7643H89.9083L89.4048 97.8651L89.6062 97.5629L89.7069 97.2608L89.5055 97.1601L89.3041 97.2608L89.1027 97.4622L88.6999 97.3615L88.8006 97.7643L89.002 98.0665L89.2034 98.2679L89.1027 98.4693L88.6999 98.8722L88.4985 98.7715L88.5992 99.275L87.9949 99.7786L87.3907 100.181L86.6858 100.282L86.5851 100.484H86.0816V100.282L85.7795 100.484L85.5781 100.282L85.3766 100.081L85.4774 100.584L85.1752 100.484L84.9738 100.282L84.8731 100.383L85.0745 100.786L85.2759 100.886L85.0745 101.088L85.4774 100.987V101.189L84.9738 101.491L84.571 100.987L84.4703 101.289V101.793L84.3696 101.994L84.2689 101.591L83.6647 101.994L83.564 102.196L83.7654 102.397L84.0675 102.196L83.6647 102.8L82.8591 102.699L82.7583 102.901L83.0605 103.001L83.4633 103.303L83.0605 104.311L82.8591 104.109L82.5569 104.311L82.1541 103.908L82.2548 104.311L82.1541 104.411L82.2548 104.512L82.7583 104.613L82.9598 104.512L82.8591 105.217L82.7583 105.318V105.922H82.9598L83.0605 106.526L82.9598 106.728L83.2619 107.231L83.4633 107.735L83.6647 107.835L83.564 108.238L83.3626 108.44L82.9598 108.339L82.5569 107.936H81.1471L80.6436 107.533L80.0393 107.433L79.6365 107.03H78.9316V106.728L78.7302 106.627L78.5288 105.821L78.2267 105.418L78.0253 105.217V104.713L77.8239 104.411L77.9246 104.21V103.908L77.8239 103.606L77.421 103.404L76.9175 103.001L76.8168 102.699L76.414 102.095L76.1119 101.893L75.9105 101.591L75.7091 100.886L75.407 100.484L75.3063 100.181L75.0042 99.7786V99.275L74.702 99.0736V98.8722L73.9971 98.4693V98.2679L73.5943 98.1672V97.8651H73.3929L73.0908 97.3615H72.3859L71.7816 97.2608H71.2781L70.8753 97.0594L70.6739 97.3615L69.969 97.4622L69.5662 98.0665L69.4654 98.57L69.264 98.8722L68.7605 99.3757V99.5771L68.1563 99.3757L67.8542 99.0736H67.4514L67.1493 98.6707L66.6457 98.57L66.0415 97.9658L65.7394 97.8651L65.4373 97.5629L65.3366 97.1601L65.1352 96.7572L65.0345 96.4551L65.1352 96.153L64.7324 95.448V95.1459L64.4303 94.6423L63.9267 94.2395L63.5239 94.1388L63.0204 93.5345V93.3331L62.6176 93.0309L62.2148 92.6281L61.9127 92.4267L61.6106 92.2252L61.3084 91.9231V91.5203L61.107 91.4196L60.9056 91.3189L60.6035 91.0167V90.7146L69.1633 91.1174L69.5662 78.3271Z" fill="#F8F8F7" stroke="#21202E" stroke-width="0.3" stroke-linecap="round" stroke-linejoin="round"/>
</svg>
